<svg xmlns="http://www.w3.org/2000/svg" width="1600" height="1600" viewBox="0 0 1600 1600" version="1.1"><path d="M 750 137.500 C 750 138.325, 749.506 139, 748.901 139 C 748.297 139, 746.541 140.350, 745 142 C 743.459 143.650, 741.908 145, 741.553 145 C 741.199 145, 739.861 146.012, 738.580 147.250 C 735.016 150.693, 732.059 153, 731.209 153 C 730.787 153, 729.793 153.900, 729 155 C 728.207 156.100, 727.082 157, 726.500 157 C 725.918 157, 724.793 157.900, 724 159 C 723.207 160.100, 722.013 161, 721.347 161 C 720.680 161, 719.849 161.900, 719.500 163 C 719.151 164.100, 718.176 165, 717.334 165 C 716.492 165, 714.541 166.350, 713 168 C 711.459 169.650, 709.711 171, 709.116 171 C 708.522 171, 705.890 173.073, 703.268 175.607 C 700.645 178.141, 696.949 181.404, 695.054 182.857 C 693.158 184.311, 689.914 187.151, 687.845 189.169 C 685.777 191.187, 683.226 193.111, 682.178 193.444 C 681.129 193.776, 677.623 196.657, 674.386 199.845 C 671.149 203.033, 666.925 206.713, 665 208.023 C 663.075 209.332, 661.275 210.653, 661 210.958 C 660.725 211.262, 658.802 212.777, 656.727 214.324 C 654.652 215.871, 651.952 218.169, 650.727 219.431 C 649.502 220.694, 645.350 224.130, 641.500 227.069 C 637.650 230.008, 633.600 233.256, 632.500 234.288 C 631.400 235.320, 627.800 238.168, 624.500 240.618 C 621.200 243.067, 616.839 246.630, 614.809 248.535 C 612.778 250.441, 610.749 252, 610.299 252 C 609.849 252, 608.919 252.900, 608.232 254 C 607.545 255.100, 606.492 256, 605.893 256 C 605.293 256, 603.541 257.350, 602 259 C 600.459 260.650, 598.802 262, 598.320 262 C 597.837 262, 596.793 262.900, 596 264 C 595.207 265.100, 594.082 266, 593.500 266 C 592.918 266, 591.793 266.900, 591 268 C 590.207 269.100, 589.163 270, 588.680 270 C 588.198 270, 586.541 271.350, 585 273 C 583.459 274.650, 581.802 276, 581.320 276 C 580.837 276, 579.793 276.900, 579 278 C 578.207 279.100, 576.983 280, 576.279 280 C 575.576 280, 575 280.450, 575 281 C 575 281.550, 574.506 282, 573.901 282 C 573.297 282, 571.541 283.350, 570 285 C 568.459 286.650, 566.508 288, 565.666 288 C 564.824 288, 563.849 288.900, 563.500 290 C 563.151 291.100, 562.533 292, 562.128 292 C 561.723 292, 559.615 293.633, 557.445 295.629 C 555.275 297.625, 552.375 299.980, 551 300.862 C 549.625 301.744, 547.912 303.261, 547.193 304.233 C 546.475 305.205, 545.497 306, 545.020 306 C 544.544 306, 542.814 307.238, 541.175 308.750 C 534.652 314.773, 493.119 349, 492.334 349 C 492.004 349, 491.007 349.809, 490.117 350.797 C 489.228 351.786, 486.925 353.677, 485 355 C 483.075 356.323, 480.772 358.214, 479.883 359.203 C 478.993 360.191, 477.531 361, 476.633 361 C 475.735 361, 475 361.477, 475 362.059 C 475 362.641, 474.555 362.843, 474.011 362.507 C 473.445 362.157, 473.277 362.558, 473.618 363.448 C 473.954 364.322, 473.687 365, 473.008 365 C 472.345 365, 470.541 366.350, 469 368 C 467.459 369.650, 465.933 371, 465.610 371 C 464.923 371, 461.722 373.560, 458.420 376.750 C 457.139 377.988, 455.720 379, 455.266 379 C 454.813 379, 453.793 379.900, 453 381 C 452.207 382.100, 450.983 383, 450.279 383 C 449.576 383, 449 383.450, 449 384 C 449 384.550, 448.515 385, 447.922 385 C 447.328 385, 445.114 386.800, 443 389 C 440.886 391.200, 438.771 393, 438.299 393 C 437.827 393, 436.793 393.900, 436 395 C 435.207 396.100, 434.082 397, 433.500 397 C 432.918 397, 431.793 397.900, 431 399 C 430.207 400.100, 428.788 401, 427.847 401 C 426.905 401, 425.849 401.900, 425.500 403 C 425.151 404.100, 424.221 405, 423.433 405 C 422.645 405, 422 405.450, 422 406 C 422 406.550, 421.250 407, 420.333 407 C 419.417 407, 418.934 407.267, 419.261 407.594 C 419.986 408.319, 404.649 422, 403.111 422 C 402.508 422, 400.813 423.350, 399.342 425 C 397.872 426.650, 396.167 428, 395.553 428 C 394.940 428, 392.088 430.240, 389.217 432.979 C 386.346 435.717, 380.961 440.304, 377.249 443.172 C 373.537 446.040, 369.307 449.649, 367.849 451.193 C 366.391 452.737, 364.707 454, 364.107 454 C 363.508 454, 362.455 454.900, 361.768 456 C 361.081 457.100, 360.043 458, 359.462 458 C 358.881 458, 356.648 459.800, 354.500 462 C 352.352 464.200, 350.110 466, 349.518 466 C 348.926 466, 347.793 466.900, 347 468 C 346.207 469.100, 345.082 470, 344.500 470 C 343.918 470, 342.793 470.900, 342 472 C 341.207 473.100, 340.082 474, 339.500 474 C 338.918 474, 337.793 474.900, 337 476 C 336.207 477.100, 334.788 478, 333.847 478 C 332.905 478, 331.849 478.900, 331.500 480 C 331.151 481.100, 330.512 482, 330.081 482 C 329.650 482, 327.884 483.350, 326.157 485 C 324.431 486.650, 322.745 488, 322.410 488 C 322.076 488, 320.541 489.350, 319 491 C 317.459 492.650, 315.508 494, 314.666 494 C 313.824 494, 312.849 494.900, 312.500 496 C 312.151 497.100, 311.221 498, 310.433 498 C 309.645 498, 309 498.450, 309 499 C 309 499.550, 308.558 500, 308.017 500 C 307.096 500, 304.012 502.503, 298.468 507.750 C 297.161 508.988, 295.720 510, 295.266 510 C 294.813 510, 293.793 510.900, 293 512 C 292.207 513.100, 290.983 514, 290.279 514 C 289.576 514, 289 514.450, 289 515 C 289 515.550, 288.506 516, 287.901 516 C 287.297 516, 285.541 517.350, 284 519 C 282.459 520.650, 280.866 522, 280.461 522 C 280.056 522, 276.974 524.683, 273.612 527.962 C 270.250 531.242, 265.925 535.062, 264 536.453 C 259.485 539.714, 256.592 542.044, 250.766 547.110 C 247.785 549.701, 245.451 551.003, 244.464 550.624 C 243.565 550.280, 243.156 550.443, 243.504 551.007 C 244.117 551.998, 241.134 555.168, 235.722 559.276 C 234.111 560.499, 231.749 562.400, 230.473 563.500 C 229.197 564.600, 226.270 567.075, 223.969 569 C 221.667 570.925, 219.189 573.063, 218.463 573.750 C 217.737 574.438, 216.865 575, 216.526 575 C 216.187 575, 214.861 576.013, 213.580 577.250 C 210.172 580.543, 207.070 583, 206.322 583 C 205.962 583, 204.504 584.116, 203.083 585.481 C 196.995 591.327, 192.535 595, 191.525 595 C 190.929 595, 189.793 595.900, 189 597 C 188.207 598.100, 187.163 599, 186.680 599 C 186.198 599, 184.541 600.350, 183 602 C 181.459 603.650, 179.478 605, 178.599 605 C 177.168 605, 177 608.302, 177 636.500 C 177 672.469, 176.678 671.417, 185.095 663 C 187.845 660.250, 190.359 658, 190.680 658 C 191.523 658, 195 653.852, 195 652.847 C 195 652.381, 196.101 652, 197.446 652 C 199.134 652, 202.308 649.665, 207.696 644.457 C 211.988 640.309, 217.525 635.741, 220 634.306 C 222.475 632.872, 228.180 628.104, 232.678 623.712 C 237.175 619.320, 242.222 615.064, 243.892 614.256 C 245.562 613.447, 248.291 611.483, 249.955 609.892 C 251.620 608.302, 253.262 607, 253.605 607 C 253.948 607, 255.806 605.200, 257.735 603 C 259.663 600.800, 261.637 599, 262.120 599 C 262.625 599, 263 767.812, 263 995.017 L 263 1391.034 305.464 1390.978 L 347.927 1390.923 348.922 1387.319 C 349.582 1384.930, 349.582 1383.088, 348.924 1381.857 C 347.957 1380.050, 353.514 1380, 553.851 1380 C 734.569 1380, 760.122 1379.817, 762.636 1378.506 C 766.893 1376.286, 813.510 1376.280, 814.362 1378.500 C 814.871 1379.826, 838.083 1380, 1014.944 1380 L 1214.950 1380 1214.357 1382.963 C 1214.031 1384.593, 1214.043 1387.037, 1214.384 1388.394 L 1215.003 1390.861 1261.817 1390.960 L 1308.630 1391.060 1309.797 1388.780 C 1310.439 1387.526, 1311.310 1384.700, 1311.732 1382.500 C 1312.154 1380.300, 1312.275 1203.675, 1312 990 C 1311.725 776.325, 1311.868 601.050, 1312.317 600.500 C 1312.835 599.867, 1313.609 600.142, 1314.428 601.250 C 1315.139 602.212, 1316.121 603.002, 1316.610 603.004 C 1317.100 603.007, 1319.711 605.013, 1322.412 607.463 C 1325.114 609.913, 1327.664 611.708, 1328.078 611.452 C 1328.493 611.195, 1330.375 612.789, 1332.262 614.993 C 1334.148 617.197, 1336.273 619, 1336.984 619 C 1337.695 619, 1341.157 621.813, 1344.678 625.250 C 1348.199 628.688, 1351.512 631.556, 1352.040 631.625 C 1352.568 631.694, 1353.395 631.806, 1353.879 631.875 C 1354.362 631.944, 1355.308 633.330, 1355.982 634.957 C 1356.786 636.898, 1358.345 638.289, 1360.523 639.008 C 1362.347 639.610, 1365.729 642.152, 1368.038 644.657 C 1370.347 647.162, 1372.837 649.300, 1373.570 649.407 C 1375.495 649.690, 1379 653.078, 1379 654.655 C 1379 655.395, 1379.801 656, 1380.779 656 C 1381.758 656, 1383.207 656.900, 1384 658 C 1384.793 659.100, 1385.918 660, 1386.500 660 C 1387.082 660, 1388.207 660.900, 1389 662 C 1389.793 663.100, 1390.969 664, 1391.614 664 C 1392.259 664, 1393.047 664.679, 1393.365 665.509 C 1393.684 666.339, 1394.294 666.943, 1394.722 666.851 C 1396.519 666.462, 1399 668.351, 1399 670.107 C 1399 671.406, 1399.709 672, 1401.259 672 C 1402.502 672, 1404.043 672.838, 1404.683 673.863 C 1405.926 675.854, 1410 677.419, 1410 675.906 C 1410 675.408, 1410.643 675, 1411.429 675 C 1412.214 675, 1413.564 674.293, 1414.429 673.429 C 1415.759 672.098, 1416 668.576, 1416 650.429 C 1416 636.810, 1416.364 629, 1417 629 C 1418.252 629, 1418.332 618.323, 1417.085 617.553 C 1416.582 617.242, 1415.999 617.502, 1415.790 618.130 C 1415.347 619.459, 1411.536 617.591, 1408.893 614.750 C 1407.998 613.788, 1406.756 613, 1406.133 613 C 1405.510 613, 1405 612.550, 1405 612 C 1405 611.450, 1404.290 611, 1403.422 611 C 1402.553 611, 1400.114 609.200, 1398 607 C 1395.886 604.800, 1393.702 603, 1393.146 603 C 1392.590 603, 1391.849 602.100, 1391.500 601 C 1391.151 599.900, 1390.386 599, 1389.800 599 C 1388.595 599, 1385 595.141, 1385 593.847 C 1385 593.381, 1384.325 593, 1383.500 593 C 1382.675 593, 1382 592.550, 1382 592 C 1382 591.450, 1381.100 591, 1380 591 C 1378.900 591, 1378 590.550, 1378 590 C 1378 589.450, 1377.524 589, 1376.941 589 C 1376.359 589, 1374.222 587.431, 1372.191 585.513 C 1360.147 574.136, 1356.417 571, 1354.933 571 C 1354.020 571, 1351.270 568.862, 1348.822 566.250 C 1346.373 563.638, 1342.699 560.230, 1340.656 558.677 C 1335.904 555.065, 1332.950 551.891, 1333.504 550.993 C 1333.744 550.606, 1332.941 550.450, 1331.720 550.647 C 1330.045 550.917, 1327.169 548.779, 1320 541.931 C 1314.775 536.941, 1309.150 532.257, 1307.500 531.523 C 1305.850 530.790, 1303.150 528.780, 1301.500 527.057 C 1299.850 525.334, 1297.656 523.154, 1296.624 522.212 C 1295.593 521.271, 1293.701 519.487, 1292.420 518.250 C 1291.139 517.013, 1289.620 516, 1289.045 516 C 1288.470 516, 1288 515.550, 1288 515 C 1288 514.450, 1287.281 514, 1286.401 514 C 1285.522 514, 1283.541 512.650, 1282 511 C 1280.459 509.350, 1278.868 508, 1278.466 508 C 1277.514 508, 1274 503.945, 1274 502.847 C 1274 502.381, 1273.424 502, 1272.721 502 C 1272.017 502, 1270.793 501.100, 1270 500 C 1269.207 498.900, 1268.091 498, 1267.520 498 C 1266.949 498, 1265.919 497.100, 1265.232 496 C 1264.545 494.900, 1263.320 494, 1262.509 494 C 1261.698 494, 1259.789 492.884, 1258.267 491.521 C 1256.745 490.158, 1253.725 487.458, 1251.555 485.521 C 1249.385 483.584, 1247.198 482, 1246.696 482 C 1246.194 482, 1246.063 480.885, 1246.405 479.522 C 1246.983 477.221, 1246.816 477.087, 1244.072 477.636 C 1241.110 478.228, 1237.825 475.918, 1230.723 468.250 C 1229.577 467.013, 1228.076 466, 1227.387 466 C 1226.698 466, 1225.849 465.100, 1225.500 464 C 1225.151 462.900, 1224.221 462, 1223.433 462 C 1222.645 462, 1222 461.550, 1222 461 C 1222 460.450, 1221.325 460, 1220.500 460 C 1219.675 460, 1219 459.550, 1219 459 C 1219 458.450, 1218.555 458, 1218.011 458 C 1216.875 458, 1214.289 455.976, 1209.067 451 C 1203.090 445.305, 1196.029 439.572, 1193.672 438.500 C 1192.462 437.950, 1189.187 435.250, 1186.394 432.500 C 1179.726 425.935, 1174.851 422, 1173.386 422 C 1172.735 422, 1168.325 418.175, 1163.586 413.500 C 1158.848 408.825, 1154.627 405, 1154.206 405 C 1153.786 405, 1152.793 404.100, 1152 403 C 1151.207 401.900, 1149.857 401, 1149 401 C 1148.143 401, 1146.793 400.100, 1146 399 C 1145.207 397.900, 1144.082 397, 1143.500 397 C 1142.918 397, 1141.793 396.100, 1141 395 C 1140.207 393.900, 1139.013 393, 1138.347 393 C 1137.680 393, 1136.849 392.100, 1136.500 391 C 1136.151 389.900, 1135.221 389, 1134.433 389 C 1133.645 389, 1133 388.550, 1133 388 C 1133 387.450, 1132.325 387, 1131.500 387 C 1130.675 387, 1130 386.550, 1130 386 C 1130 385.450, 1129.424 385, 1128.721 385 C 1128.017 385, 1126.793 384.100, 1126 383 C 1125.207 381.900, 1124.225 381, 1123.818 381 C 1123.411 381, 1121.295 379.200, 1119.117 377 C 1116.939 374.800, 1114.852 373, 1114.480 373 C 1114.107 373, 1112.541 371.650, 1111 370 C 1109.459 368.350, 1107.478 367, 1106.599 367 C 1105.719 367, 1105 366.550, 1105 366 C 1105 365.450, 1104.325 365, 1103.500 365 C 1102.675 365, 1102 364.311, 1102 363.469 C 1102 362.626, 1101.222 361.639, 1100.272 361.274 C 1099.321 360.909, 1097.481 359.348, 1096.183 357.805 C 1094.884 356.262, 1093.287 355, 1092.632 355 C 1091.977 355, 1090.793 354.100, 1090 353 C 1089.207 351.900, 1087.983 351, 1087.279 351 C 1086.576 351, 1086 350.550, 1086 350 C 1086 349.450, 1085.365 349, 1084.590 349 C 1083.814 349, 1080.552 346.518, 1077.340 343.484 C 1074.128 340.450, 1070.375 336.911, 1069 335.619 C 1067.625 334.326, 1064.700 332.127, 1062.500 330.731 C 1060.300 329.334, 1054.692 324.774, 1050.037 320.596 C 1045.382 316.418, 1041.046 313, 1040.400 313 C 1039.754 313, 1036.587 310.479, 1033.363 307.397 C 1026.294 300.641, 1018.466 294, 1017.571 294 C 1017.213 294, 1015.208 292.200, 1013.115 290 C 1011.022 287.800, 1008.889 286, 1008.376 286 C 1007.862 286, 1006.793 285.100, 1006 284 C 1005.207 282.900, 1004.082 282, 1003.500 282 C 1002.918 282, 1001.793 281.100, 1001 280 C 1000.207 278.900, 998.758 278, 997.779 278 C 996.801 278, 996 277.550, 996 277 C 996 276.450, 995.250 276, 994.333 276 C 993.417 276, 992.935 275.732, 993.263 275.404 C 994.121 274.545, 985.335 266, 983.594 266 C 982.791 266, 981.849 265.100, 981.500 264 C 981.151 262.900, 980.221 262, 979.433 262 C 978.645 262, 978 261.550, 978 261 C 978 260.450, 977.325 260, 976.500 260 C 975.675 260, 975 259.550, 975 259 C 975 258.450, 974.325 258, 973.500 258 C 972.675 258, 972 257.550, 972 257 C 972 256.450, 971.596 256, 971.102 256 C 970.608 256, 967.377 253.302, 963.923 250.004 C 960.468 246.707, 956.372 243.447, 954.821 242.760 C 953.269 242.074, 952 241.172, 952 240.756 C 952 240.340, 951.515 240, 950.922 240 C 950.328 240, 948.186 238.313, 946.161 236.250 C 941.591 231.595, 935.344 226.136, 931.573 223.500 C 928.258 221.183, 922.175 216.195, 919.999 214.008 C 916.814 210.808, 910.053 206, 908.739 206 C 907.426 206, 903 201.661, 903 200.374 C 903 199.395, 896.667 194.074, 894.750 193.442 C 893.788 193.125, 893 192.467, 893 191.981 C 893 191.494, 890.862 189.638, 888.250 187.856 C 885.638 186.074, 883.350 184.253, 883.167 183.808 C 882.983 183.364, 882.393 183, 881.855 183 C 881.317 183, 878.268 180.300, 875.079 177 C 871.889 173.700, 868.767 171, 868.140 171 C 867.513 171, 867 170.550, 867 170 C 867 169.450, 866.199 169, 865.221 169 C 864.242 169, 862.793 168.100, 862 167 C 861.207 165.900, 860.193 165, 859.746 165 C 858.453 165, 852.069 158.264, 852.733 157.600 C 853.063 157.270, 852.683 157, 851.887 157 C 851.092 157, 849.793 156.100, 849 155 C 848.207 153.900, 846.983 153, 846.279 153 C 845.576 153, 845 152.550, 845 152 C 845 151.450, 844.325 151, 843.500 151 C 842.675 151, 842 150.550, 842 150 C 842 149.450, 841.296 149, 840.435 149 C 839.574 149, 836.762 146.838, 834.185 144.195 C 825.925 135.724, 827.539 136, 786.346 136 C 754.705 136, 750 136.194, 750 137.500 M 784 165.651 C 783.175 165.978, 780.475 167.890, 778 169.902 C 775.525 171.913, 772.150 174.385, 770.500 175.395 C 768.850 176.406, 766.375 178.294, 765 179.592 C 758.081 186.123, 747.959 194.529, 743.500 197.448 C 740.750 199.249, 736.332 203.034, 733.682 205.861 C 731.032 208.687, 728.245 211, 727.489 211 C 726.733 211, 723.501 213.393, 720.307 216.317 C 711.318 224.548, 701.069 233, 700.077 233 C 699.584 233, 696.184 235.791, 692.522 239.202 C 688.860 242.613, 684.432 246.275, 682.682 247.338 C 680.932 248.402, 676.214 252.340, 672.199 256.089 C 668.183 259.839, 662.161 264.840, 658.815 267.203 C 655.470 269.566, 649.441 274.538, 645.419 278.250 C 641.396 281.962, 637.668 285, 637.135 285 C 636.601 285, 631.966 288.873, 626.833 293.607 C 621.700 298.341, 615.127 303.792, 612.226 305.721 C 609.325 307.649, 604.046 311.859, 600.496 315.077 C 596.945 318.295, 592.793 321.713, 591.270 322.673 C 589.746 323.633, 584.675 327.825, 580 331.989 C 575.325 336.153, 569.700 340.748, 567.500 342.201 C 565.300 343.653, 561.025 347.142, 558 349.954 C 554.975 352.766, 550.244 356.580, 547.486 358.430 C 544.729 360.280, 539.329 364.807, 535.486 368.491 C 531.644 372.175, 527.150 375.882, 525.500 376.728 C 523.850 377.575, 518.900 381.479, 514.500 385.404 C 510.100 389.329, 503.800 394.538, 500.500 396.979 C 497.200 399.420, 491.751 403.911, 488.392 406.959 C 485.032 410.006, 480.532 413.731, 478.392 415.235 C 476.251 416.739, 471.747 420.339, 468.383 423.235 C 465.018 426.131, 459.684 430.525, 456.529 433 C 453.374 435.475, 448.315 439.750, 445.286 442.500 C 442.257 445.250, 438.592 448.128, 437.140 448.895 C 435.688 449.663, 431.783 452.813, 428.462 455.895 C 425.141 458.978, 418.902 464.200, 414.599 467.500 C 410.295 470.800, 403.976 476.027, 400.556 479.116 C 397.136 482.205, 393.025 485.573, 391.419 486.601 C 389.814 487.629, 385.295 491.177, 381.378 494.485 C 363.303 509.750, 353.652 517.659, 350.851 519.500 C 349.178 520.600, 344.639 524.337, 340.766 527.804 C 336.893 531.272, 332.098 535.313, 330.112 536.785 C 328.125 538.257, 322.758 542.507, 318.184 546.230 C 313.610 549.954, 309.006 553, 307.953 553 C 305.985 553, 304.255 556.985, 305.411 558.856 C 305.740 559.389, 306.007 739.816, 306.002 959.805 C 305.996 1323.874, 306.137 1359.839, 307.579 1360.392 C 310.168 1361.385, 1266.820 1361.100, 1267.435 1360.105 C 1267.739 1359.613, 1268.004 1178.151, 1268.023 956.855 L 1268.059 554.500 1265.642 553 C 1262.195 550.861, 1251.180 542.177, 1246.678 538.050 C 1241.727 533.510, 1237.904 531.015, 1235.888 531.007 C 1235.001 531.003, 1230.670 527.737, 1226.263 523.750 C 1212.099 510.933, 1210.563 509.670, 1206.781 507.730 C 1203.084 505.833, 1191 493.780, 1191 491.989 C 1191 491.473, 1189.561 490.307, 1187.803 489.398 C 1186.044 488.488, 1181.122 484.427, 1176.866 480.372 C 1172.609 476.317, 1168.646 473, 1168.058 473 C 1167.471 473, 1163.728 470.187, 1159.741 466.750 C 1151.300 459.471, 1144.529 454.083, 1141 451.836 C 1139.625 450.960, 1134.966 446.926, 1130.647 442.872 C 1126.328 438.817, 1121.289 434.575, 1119.449 433.445 C 1117.610 432.314, 1113.690 429.164, 1110.739 426.445 C 1107.788 423.725, 1102.362 419.250, 1098.682 416.500 C 1095.003 413.750, 1088.956 408.701, 1085.246 405.281 C 1081.536 401.860, 1077.956 399.048, 1077.292 399.031 C 1076.628 399.014, 1072.516 395.738, 1068.154 391.750 C 1063.792 387.762, 1056.707 381.800, 1052.409 378.500 C 1048.112 375.200, 1042.099 370.204, 1039.048 367.397 C 1035.997 364.590, 1032.296 361.665, 1030.825 360.897 C 1029.354 360.129, 1025.754 357.225, 1022.825 354.444 C 1019.896 351.663, 1014.350 347.031, 1010.500 344.151 C 1006.650 341.270, 1000.423 336.121, 996.663 332.707 C 992.903 329.293, 988.403 325.738, 986.663 324.808 C 984.923 323.877, 980.125 319.878, 976 315.922 C 971.875 311.966, 966.700 307.590, 964.500 306.198 C 962.300 304.806, 956.597 300.169, 951.826 295.894 C 947.055 291.619, 941.205 286.895, 938.826 285.396 C 936.447 283.897, 931.800 280.137, 928.500 277.041 C 925.200 273.944, 920.475 270.119, 918 268.540 C 915.525 266.962, 912.910 264.841, 912.189 263.829 C 910.746 261.802, 899.587 252.484, 892.036 247 C 889.385 245.075, 884.720 241.138, 881.668 238.250 C 878.617 235.363, 875.614 233, 874.997 233 C 874.379 233, 870.347 229.738, 866.038 225.750 C 857.341 217.703, 847.753 210.009, 846.388 209.983 C 845.899 209.973, 842.402 206.834, 838.615 203.007 C 834.828 199.180, 830.778 195.749, 829.615 195.383 C 828.452 195.017, 823.944 191.377, 819.597 187.293 C 815.251 183.210, 810.076 178.692, 808.097 177.254 C 806.119 175.816, 801.893 172.650, 798.706 170.218 C 793.038 165.894, 787.629 164.214, 784 165.651 M 449.958 476.828 C 443.623 479.161, 432.965 485.429, 430.109 488.502 C 424.498 494.539, 420.918 499.798, 419.467 504.132 C 418.615 506.680, 417.043 509.556, 415.974 510.524 C 414.069 512.248, 414.029 514.763, 414.008 636.141 C 413.993 720.675, 414.313 760, 415.018 760 C 415.586 760, 417.672 763.368, 419.654 767.485 C 423.911 776.330, 434.107 787.377, 441 790.612 C 452.652 796.081, 451.410 796, 523.338 796 C 560.002 796, 590 796.251, 590 796.559 C 590 796.866, 588.607 798.851, 586.904 800.969 C 584.537 803.916, 583.979 805.372, 584.535 807.161 C 584.934 808.447, 596.220 820.554, 609.614 834.065 L 633.966 858.630 632.988 862.042 C 632.450 863.919, 632.255 866.229, 632.556 867.177 C 632.857 868.125, 632.405 870.250, 631.552 871.900 C 630.698 873.551, 630 877.083, 630 879.750 C 630 882.418, 629.453 885.147, 628.785 885.815 C 627.640 886.960, 626.600 892.707, 625.356 904.773 C 624.889 909.301, 624.409 910.254, 621.956 911.523 C 620.385 912.335, 617.081 913, 614.615 913 C 612.148 913, 608.863 913.502, 607.315 914.115 C 604.602 915.190, 598.785 916.167, 585 917.862 C 581.425 918.301, 577.517 919.187, 576.316 919.830 C 575.114 920.474, 572.764 921, 571.092 921 C 567.851 921, 569.608 922.590, 533.802 887.259 C 520.328 873.964, 518.872 872.811, 516.302 873.406 C 512.594 874.264, 507 880.601, 507 883.944 C 507 885.380, 506.379 887.443, 505.620 888.527 C 503.900 890.986, 503.777 893.140, 503.726 921.500 C 503.681 946.723, 504.028 952.406, 505.812 955.684 C 506.465 956.886, 507.014 958.911, 507.032 960.184 C 507.049 961.458, 507.724 963.374, 508.532 964.441 C 509.339 965.509, 510 967.155, 510 968.099 C 510 969.597, 513.509 977.618, 516.083 982 C 516.567 982.825, 518.125 985.854, 519.545 988.730 C 520.965 991.607, 522.553 994.224, 523.075 994.546 C 523.596 994.869, 525.531 997.465, 527.374 1000.316 C 531.135 1006.135, 554.094 1029, 556.175 1029 C 556.914 1029, 558.012 1029.787, 558.614 1030.750 C 559.216 1031.713, 565.512 1035.395, 572.605 1038.934 C 589.563 1047.394, 588.645 1046.995, 591.236 1047.035 C 592.481 1047.055, 594.625 1047.714, 596 1048.500 C 597.375 1049.286, 599.683 1049.945, 601.128 1049.965 C 602.573 1049.984, 605.498 1050.729, 607.628 1051.620 C 613.305 1053.995, 654.194 1053.985, 658.792 1051.607 C 660.502 1050.723, 663.412 1050, 665.259 1050 C 667.106 1050, 669.491 1049.339, 670.559 1048.532 C 671.626 1047.724, 673.711 1047.049, 675.191 1047.032 C 676.671 1047.014, 678.160 1046.550, 678.500 1046 C 679.965 1043.629, 683.083 1045.544, 691.461 1053.961 C 700.220 1062.760, 700.348 1062.958, 698.558 1064.935 C 697.556 1066.043, 695.891 1067.217, 694.858 1067.545 C 693.826 1067.873, 689.947 1069.905, 686.240 1072.060 C 680.653 1075.308, 665.713 1089.758, 598.927 1156.503 C 513.255 1242.124, 518.375 1236.507, 511.620 1252.284 C 509.399 1257.471, 509.287 1280.675, 511.468 1283.559 C 512.276 1284.626, 512.951 1286.246, 512.968 1287.158 C 513.056 1291.756, 519.281 1300.330, 532.455 1314 C 540.141 1321.975, 547.966 1329.850, 549.844 1331.500 C 566.479 1346.116, 571.114 1347.964, 591.191 1347.985 C 599.256 1347.994, 605.136 1347.589, 605.500 1347 C 605.840 1346.450, 607.161 1346, 608.437 1346 C 609.712 1346, 611.315 1345.325, 612 1344.500 C 612.685 1343.675, 614.035 1343, 615 1343 C 615.965 1343, 617.315 1342.325, 618 1341.500 C 618.685 1340.675, 619.753 1340, 620.375 1340 C 620.996 1340, 657.788 1303.662, 702.135 1259.250 C 783.869 1177.395, 786.168 1174.910, 790.905 1163.283 C 793.914 1155.897, 788.093 1150.662, 888.802 1251.316 C 940.336 1302.822, 983.400 1345.581, 984.500 1346.336 C 989.569 1349.815, 998.110 1354.003, 1000.196 1354.032 C 1001.463 1354.049, 1003.374 1354.724, 1004.441 1355.532 C 1005.851 1356.598, 1009.152 1357, 1016.500 1357 C 1023.848 1357, 1027.149 1356.598, 1028.559 1355.532 C 1029.626 1354.724, 1031.499 1354.049, 1032.719 1354.032 C 1041.008 1353.913, 1064.915 1330.929, 1064.997 1323 C 1065.005 1322.175, 1065.685 1320.211, 1066.506 1318.636 C 1068.583 1314.653, 1068.555 1295.318, 1066.468 1292.559 C 1065.661 1291.491, 1065 1289.691, 1065 1288.559 C 1065.001 1287.426, 1063.555 1283.575, 1061.787 1280 C 1058.871 1274.104, 1049.026 1263.933, 955.788 1170.500 C 899.256 1113.850, 853.002 1067.164, 853.001 1066.753 C 853.001 1066.343, 856.358 1062.743, 860.463 1058.753 C 869.148 1050.312, 873 1045.380, 873 1042.700 C 873 1041.648, 871.650 1039.083, 870 1037 C 868.350 1034.917, 867 1032.619, 867 1031.893 C 867 1031.168, 893.621 1003.931, 926.157 971.368 C 970.755 926.733, 986.321 911.748, 989.407 910.480 C 991.658 909.555, 994.978 908.169, 996.784 907.399 C 998.590 906.630, 1000.715 906, 1001.505 906 C 1002.296 906, 1005.487 904.875, 1008.596 903.500 C 1011.705 902.125, 1015.058 901, 1016.047 901 C 1018.412 901, 1023.764 894.586, 1027.461 887.320 C 1029.090 884.119, 1032.128 878.970, 1034.211 875.879 C 1036.295 872.787, 1038 869.930, 1038 869.531 C 1038 869.131, 1040.378 864.911, 1043.285 860.152 C 1046.191 855.393, 1049.119 850.375, 1049.792 849 C 1050.465 847.625, 1053.037 843.199, 1055.508 839.165 C 1062.685 827.446, 1062.557 827.023, 1047.236 811.736 C 1035.063 799.589, 1034.283 799, 1030.393 799 C 1027.900 799, 1024.602 799.965, 1021.907 801.483 C 1019.483 802.849, 1016.531 804.396, 1015.347 804.922 C 1014.163 805.447, 1012.913 806.332, 1012.569 806.888 C 1012.225 807.445, 1009.189 809.300, 1005.822 811.011 C 1000.169 813.884, 985.886 822.116, 980 825.895 C 978.625 826.778, 975.700 828.414, 973.500 829.531 C 962.733 834.999, 957 840.226, 957 844.576 C 957 845.844, 956.550 847.160, 956 847.500 C 955.450 847.840, 955 849.161, 955 850.437 C 955 851.712, 954.325 853.315, 953.500 854 C 952.675 854.685, 951.986 856.427, 951.968 857.872 C 951.951 859.318, 951.276 861.374, 950.468 862.441 C 949.661 863.509, 949 865.205, 949 866.211 C 949 867.217, 947.913 869.718, 946.583 871.770 C 944.423 875.104, 830.172 989.655, 827.345 991.320 C 826.710 991.694, 824.305 990.425, 822 988.500 C 815.428 983.009, 814.341 983.430, 800.932 996.660 L 791.363 1006.101 773.932 988.504 C 764.344 978.827, 756.368 970.325, 756.207 969.612 C 756.046 968.899, 756.609 967.740, 757.457 967.036 C 758.306 966.331, 759 964.444, 759 962.842 C 759 961.240, 759.712 958.842, 760.583 957.514 C 761.531 956.067, 761.899 954.256, 761.500 953 C 761.107 951.762, 761.455 949.955, 762.348 948.592 C 763.342 947.075, 764.040 942.717, 764.383 935.891 C 764.669 930.176, 764.955 924.600, 765.017 923.500 C 765.407 916.568, 763.523 897.218, 762.271 895.299 C 761.439 894.025, 761.115 892.214, 761.500 891 C 761.899 889.744, 761.531 887.933, 760.583 886.486 C 759.712 885.158, 759 882.760, 759 881.158 C 759 879.556, 758.325 877.685, 757.500 877 C 756.675 876.315, 756 875.172, 756 874.459 C 756 873.746, 755.380 871.888, 754.622 870.331 C 753.865 868.774, 752.421 865.700, 751.414 863.500 C 750.408 861.300, 748.666 858.150, 747.544 856.500 C 746.422 854.850, 744.828 852.291, 744.002 850.814 C 740.032 843.715, 734.288 836.674, 725.317 827.911 C 715.911 818.723, 699.856 807, 696.679 807 C 695.847 807, 695.017 806.632, 694.833 806.183 C 694.444 805.227, 681.838 799, 680.293 799 C 679.717 799, 678.685 798.325, 678 797.500 C 676.894 796.167, 702.857 795.996, 910.628 795.965 C 1111.481 795.934, 1144.853 795.727, 1147 794.500 C 1148.375 793.714, 1150.936 793.055, 1152.691 793.035 C 1154.446 793.016, 1156.171 792.532, 1156.525 791.959 C 1156.879 791.387, 1159.043 789.755, 1161.334 788.332 C 1170.975 782.344, 1182.990 765.210, 1183.006 757.425 C 1183.010 755.816, 1183.685 753.211, 1184.506 751.636 C 1186.764 747.307, 1186.764 523.693, 1184.506 519.364 C 1183.685 517.789, 1183.010 515.064, 1183.006 513.309 C 1183.003 511.554, 1182.600 509.871, 1182.111 509.568 C 1181.622 509.266, 1180.915 507.777, 1180.540 506.259 C 1179.624 502.552, 1174.331 494.398, 1170.013 490.043 C 1163.514 483.489, 1158.350 480.167, 1150.633 477.576 L 1142.958 475 798.729 475.078 C 479.562 475.149, 454.169 475.277, 449.958 476.828 M 456.411 510.888 C 454.713 511.926, 452.350 514.011, 451.161 515.522 L 449 518.270 449.041 635.885 L 449.081 753.500 451.791 756.618 C 456.982 762.593, 458.351 762.864, 484.405 763.073 C 498.745 763.187, 508.523 762.877, 509.112 762.288 C 509.714 761.686, 510.062 745.853, 510.023 720.800 L 509.960 680.286 513.230 675.393 C 515.399 672.148, 518.015 669.756, 521 668.291 L 525.500 666.082 799.500 666.082 L 1073.500 666.082 1078 668.291 C 1080.976 669.752, 1083.601 672.147, 1085.750 675.363 L 1089 680.226 1089 721.054 C 1089 749.143, 1089.336 762.090, 1090.077 762.548 C 1090.670 762.914, 1101.749 763.169, 1114.699 763.114 C 1137.178 763.020, 1138.428 762.913, 1142.302 760.758 C 1144.922 759.300, 1147.182 756.939, 1148.680 754.093 L 1151 749.685 1151 635.811 C 1151 511.259, 1151.345 518.415, 1145.058 512.500 L 1141.869 509.500 800.684 509.251 C 467.901 509.009, 459.424 509.049, 456.411 510.888 M 633.500 539.573 C 626.636 543.143, 621.737 550.059, 621.820 556.065 C 621.898 561.664, 626.580 568.180, 633 571.623 C 636.376 573.433, 642.207 573.510, 797.500 573.772 C 943.188 574.018, 958.976 573.891, 963.500 572.435 C 969.323 570.562, 972.445 567.962, 975.107 562.771 C 977.466 558.170, 977.703 555.524, 976.164 550.938 C 974.781 546.816, 968.772 540.598, 964.685 539.060 C 962.745 538.329, 911.312 538.002, 799.185 538.006 C 653.739 538.012, 636.182 538.178, 633.500 539.573 M 1048.223 539.661 C 1040.969 543.236, 1036.803 552.061, 1038.964 559.273 C 1041.723 568.483, 1051.705 574.603, 1059.943 572.135 C 1064.569 570.749, 1070.563 564.854, 1072.109 560.170 C 1074.481 552.983, 1070.857 544.323, 1063.634 539.919 C 1059.775 537.565, 1052.714 537.447, 1048.223 539.661 M 632.976 604.250 C 626.624 607.464, 622 613.929, 622 619.598 C 622 627.369, 628.006 634.528, 636.500 636.881 C 639.349 637.670, 686.284 637.990, 799.568 637.994 C 978.020 638.001, 965.843 638.506, 972.425 630.816 C 978.328 623.920, 978.435 615.843, 972.709 609.322 C 970.954 607.322, 967.713 604.867, 965.509 603.865 C 961.685 602.128, 954.032 602.043, 799.462 602.022 L 637.424 602 632.976 604.250 M 1047.840 603.965 C 1034.827 611.042, 1035.512 628.119, 1049.086 635.044 C 1053.966 637.533, 1057.307 637.514, 1062.573 634.965 C 1067.814 632.428, 1072.085 626.430, 1072.730 620.699 C 1074.164 607.981, 1059.090 597.846, 1047.840 603.965 M 1420.938 639 C 1420.903 639.550, 1420.875 646.075, 1420.875 653.500 C 1420.875 670.074, 1420.797 669, 1422 669 C 1422.624 669, 1423 663.167, 1423 653.500 C 1423 643.833, 1422.624 638, 1422 638 C 1421.450 638, 1420.972 638.450, 1420.938 639 M 544.950 701.450 C 543.467 702.933, 543.705 760.305, 545.200 761.800 C 546.947 763.547, 1052.053 763.547, 1053.800 761.800 C 1055.271 760.329, 1055.539 702.451, 1054.080 701.549 C 1052.430 700.530, 545.969 700.431, 544.950 701.450 M 631.110 808.911 C 630.345 809.395, 626.408 810.102, 622.360 810.481 C 617.780 810.910, 615 811.615, 615 812.346 C 615 812.992, 623.122 821.616, 633.048 831.510 C 652.059 850.459, 655.034 854.435, 653.205 858.449 C 652.616 859.742, 652.358 861.654, 652.631 862.699 C 652.905 863.744, 652.431 866.602, 651.579 869.049 C 650.726 871.497, 650.023 875.217, 650.015 877.316 C 650.007 879.414, 649.457 882.114, 648.793 883.316 C 648.129 884.517, 647.229 888.087, 646.793 891.250 C 646.357 894.413, 645.643 899.587, 645.207 902.750 C 644.771 905.913, 643.871 909.483, 643.207 910.684 C 642.543 911.886, 642 914.643, 642 916.812 C 642 919.097, 641.369 921.279, 640.500 922 C 639.675 922.685, 639 923.856, 639 924.602 C 639 926.807, 631.533 929.997, 626.290 930.032 C 623.655 930.049, 620.626 930.724, 619.559 931.532 C 618.343 932.451, 615.331 933, 611.500 933 C 607.669 933, 604.657 933.549, 603.441 934.468 C 602.206 935.402, 599.117 935.948, 594.950 935.968 C 591.315 935.986, 587.878 936.522, 587.227 937.173 C 586.582 937.818, 583.097 938.454, 579.484 938.586 C 575.870 938.718, 572.371 939.264, 571.707 939.798 C 571.043 940.332, 568.996 941.091, 567.157 941.484 C 563.874 942.187, 563.466 941.852, 544.125 922.600 C 533.296 911.820, 523.971 903, 523.403 903 C 522.494 903, 521.357 908.140, 519.360 921.269 C 519.044 923.345, 519.260 925.608, 519.841 926.309 C 520.422 927.008, 521.179 931.837, 521.524 937.040 C 521.869 942.243, 522.500 947.400, 522.926 948.500 C 524.764 953.244, 526.242 957.674, 526.762 960 C 527.647 963.956, 538.858 985.062, 542.342 989.330 C 546.365 994.260, 560.511 1008.392, 566.166 1013.131 C 571.564 1017.654, 596.876 1030, 600.752 1030 C 602.328 1030, 604.491 1030.661, 605.559 1031.468 C 606.680 1032.316, 609.732 1032.950, 612.785 1032.968 C 615.692 1032.986, 619.067 1033.583, 620.285 1034.296 C 623.856 1036.385, 654.726 1034.138, 660.845 1031.344 C 662.684 1030.504, 664.970 1030.020, 665.924 1030.270 C 666.878 1030.519, 668.496 1030.111, 669.520 1029.362 C 670.544 1028.613, 672.591 1028, 674.069 1028 C 675.546 1028, 677.315 1027.325, 678 1026.500 C 679.878 1024.237, 687.601 1024.555, 690.842 1027.029 C 692.304 1028.144, 699.154 1034.685, 706.064 1041.564 L 718.628 1054.070 726.496 1049.720 C 730.824 1047.327, 734.839 1044.617, 735.419 1043.698 C 737.085 1041.056, 732.599 1034.010, 723.767 1025.396 C 714.264 1016.129, 712.380 1012.704, 714.288 1008.168 C 715.444 1005.417, 721.503 1001, 724.119 1001 C 724.502 1001, 727.805 1003.990, 731.460 1007.645 L 738.105 1014.290 741.360 1011.135 C 745.817 1006.816, 751.678 1004, 756.211 1004 C 758.295 1004, 760 1003.607, 760 1003.126 C 760 1002.645, 755.911 998.258, 750.913 993.376 C 739.645 982.368, 735.989 977.167, 736.032 972.200 C 736.049 970.165, 736.724 967.626, 737.532 966.559 C 738.339 965.491, 739 963.605, 739 962.368 C 739 961.130, 739.450 959.840, 740 959.500 C 740.550 959.160, 741.003 957.446, 741.006 955.691 C 741.010 953.936, 741.685 951.211, 742.506 949.636 C 743.328 948.060, 744 944.659, 744 942.077 C 744 939.495, 744.661 936.509, 745.468 935.441 C 747.568 932.665, 747.618 911.200, 745.532 908.441 C 744.704 907.346, 744.050 904.294, 744.032 901.441 C 744.014 898.588, 743.360 895.536, 742.532 894.441 C 741.724 893.374, 741.049 891.090, 741.032 889.366 C 740.990 885.287, 728.797 860.908, 723.811 854.936 C 721.715 852.425, 720 849.914, 720 849.355 C 720 848.074, 705.556 834, 704.242 834 C 703.708 834, 701.748 832.635, 699.886 830.966 C 698.023 829.297, 694.250 826.803, 691.500 825.424 C 688.750 824.045, 685.825 822.504, 685 821.999 C 681.896 820.099, 672.335 816.175, 668 815.022 C 665.525 814.363, 662.150 813.200, 660.500 812.436 C 658.850 811.673, 654.125 810.980, 650 810.896 C 645.875 810.813, 640.983 810.127, 639.128 809.372 C 635.243 807.791, 633.075 807.667, 631.110 808.911 M 1025.500 820.780 C 1023.850 821.593, 1021.600 823.047, 1020.500 824.011 C 1019.400 824.975, 1016.475 826.844, 1014 828.164 C 1011.525 829.484, 1007.696 831.724, 1005.491 833.142 C 1003.286 834.561, 998.940 836.883, 995.835 838.304 C 992.729 839.725, 989.895 841.361, 989.537 841.941 C 989.178 842.520, 985.982 844.395, 982.435 846.106 C 977.868 848.308, 975.811 849.903, 975.394 851.567 C 975.069 852.860, 974.173 854.442, 973.402 855.081 C 972.631 855.721, 971.986 857.427, 971.968 858.872 C 971.951 860.318, 971.276 862.374, 970.468 863.441 C 969.661 864.509, 968.982 866.309, 968.959 867.441 C 968.937 868.574, 967.647 872.158, 966.094 875.406 C 963.640 880.537, 955.325 889.265, 902.741 941.906 C 869.450 975.233, 841.900 1003.541, 841.519 1004.814 C 840.946 1006.722, 841.780 1008.085, 846.260 1012.564 C 849.250 1015.554, 852.217 1018, 852.855 1018 C 853.492 1018, 881.699 990.332, 915.537 956.515 C 981.476 890.618, 979.093 892.694, 993.500 888.594 C 1005.791 885.097, 1009.173 882.519, 1013.313 873.500 C 1014.071 871.850, 1015.435 869.882, 1016.345 869.128 C 1017.255 868.373, 1018 866.937, 1018 865.937 C 1018 864.936, 1018.401 863.870, 1018.891 863.568 C 1019.381 863.265, 1021.004 860.651, 1022.499 857.759 C 1023.993 854.866, 1026.068 851.571, 1027.108 850.436 C 1028.149 849.300, 1029 847.940, 1029 847.413 C 1029 846.886, 1030.616 844.001, 1032.591 841.002 C 1039.997 829.756, 1039.944 830.447, 1033.848 824.510 C 1028.547 819.347, 1028.474 819.314, 1025.500 820.780 M 807.490 1016.010 L 801.542 1022.020 818.510 1039.010 C 827.842 1048.355, 835.977 1056, 836.587 1056 C 838.083 1056, 849 1044.474, 849 1042.895 C 849 1040.675, 817.769 1010, 815.509 1010 C 814.303 1010, 810.953 1012.511, 807.490 1016.010 M 757.345 1023.931 C 753.807 1026.089, 752.374 1030.278, 753.875 1034.076 C 754.402 1035.409, 770.298 1051.912, 789.200 1070.750 C 821.333 1102.774, 823.796 1105, 827.092 1105 C 829.031 1105, 831.298 1104.438, 832.129 1103.750 C 835.030 1101.350, 837.123 1096.966, 836.446 1094.704 C 835.608 1091.904, 769.493 1025.421, 765.596 1023.461 C 761.854 1021.578, 761.137 1021.619, 757.345 1023.931 M 746.580 1060.870 C 746.285 1061.349, 741.196 1064.114, 735.271 1067.016 C 729.347 1069.917, 723.825 1072.856, 723 1073.546 C 721.314 1074.957, 716.434 1077.690, 704 1084.187 C 699.325 1086.630, 693.475 1089.899, 691 1091.453 C 688.525 1093.006, 653.359 1127.497, 612.853 1168.099 C 536.832 1244.301, 530 1251.795, 530 1258.980 C 530 1260.746, 529.223 1263.508, 528.272 1265.116 C 526.833 1267.552, 526.756 1268.380, 527.812 1270.070 C 528.509 1271.186, 529.254 1273.764, 529.468 1275.799 C 530.316 1283.861, 535.195 1290.771, 551.216 1306.603 C 567.213 1322.411, 573.828 1327.119, 581.968 1328.495 C 584.418 1328.909, 587.170 1329.714, 588.083 1330.284 C 589.287 1331.036, 590.881 1330.865, 593.891 1329.660 C 596.173 1328.747, 599.044 1327.978, 600.270 1327.952 C 602.690 1327.900, 606.305 1326.109, 613.034 1321.628 C 619.105 1317.585, 764.305 1171.772, 767.875 1166.133 C 769.488 1163.585, 773.410 1156.325, 776.590 1150 C 779.770 1143.675, 782.924 1137.825, 783.601 1137 C 785.508 1134.673, 798 1110.245, 798 1108.843 C 798 1106.912, 750.779 1060, 748.837 1060 C 747.891 1060, 746.876 1060.392, 746.580 1060.870 M 854.991 1102.250 C 854.980 1105.969, 850.076 1115.133, 846.911 1117.350 C 845.739 1118.171, 844.957 1119.370, 845.172 1120.016 C 845.387 1120.662, 877.162 1152.792, 915.782 1191.416 C 981.924 1257.566, 986 1261.845, 986 1265.134 C 986 1270.079, 981.775 1274, 976.445 1274 C 972.553 1274, 971.502 1273, 898.500 1199.935 C 845.954 1147.344, 823.255 1125.272, 820.204 1123.804 L 815.909 1121.737 813.463 1124.034 C 812.118 1125.298, 810.044 1128.395, 808.855 1130.916 C 807.665 1133.437, 805.996 1136.310, 805.145 1137.301 C 803.700 1138.983, 809.914 1145.410, 900.049 1235.439 C 967.128 1302.439, 997.870 1332.487, 1001 1334.108 C 1004.930 1336.144, 1006.923 1336.440, 1016.728 1336.442 C 1024.241 1336.443, 1028.361 1336.039, 1029.178 1335.222 C 1029.850 1334.550, 1031.112 1334, 1031.981 1334 C 1034.076 1334, 1044.298 1323.410, 1046.368 1319.096 C 1048.782 1314.063, 1048.661 1295.716, 1046.180 1290.616 C 1044.468 1287.095, 857.549 1099, 855.763 1099 C 855.343 1099, 854.996 1100.463, 854.991 1102.250" stroke="none" fill="#5498e2" fill-rule="evenodd"/><path d="M 784 165.651 C 783.175 165.978, 780.475 167.890, 778 169.902 C 775.525 171.913, 772.150 174.385, 770.500 175.395 C 768.850 176.406, 766.375 178.294, 765 179.592 C 758.081 186.123, 747.959 194.529, 743.500 197.448 C 740.750 199.249, 736.332 203.034, 733.682 205.861 C 731.032 208.687, 728.245 211, 727.489 211 C 726.733 211, 723.501 213.393, 720.307 216.317 C 711.318 224.548, 701.069 233, 700.077 233 C 699.584 233, 696.184 235.791, 692.522 239.202 C 688.860 242.613, 684.432 246.275, 682.682 247.338 C 680.932 248.402, 676.214 252.340, 672.199 256.089 C 668.183 259.839, 662.161 264.840, 658.815 267.203 C 655.470 269.566, 649.441 274.538, 645.419 278.250 C 641.396 281.962, 637.668 285, 637.135 285 C 636.601 285, 631.966 288.873, 626.833 293.607 C 621.700 298.341, 615.127 303.792, 612.226 305.721 C 609.325 307.649, 604.046 311.859, 600.496 315.077 C 596.945 318.295, 592.793 321.713, 591.270 322.673 C 589.746 323.633, 584.675 327.825, 580 331.989 C 575.325 336.153, 569.700 340.748, 567.500 342.201 C 565.300 343.653, 561.025 347.142, 558 349.954 C 554.975 352.766, 550.244 356.580, 547.486 358.430 C 544.729 360.280, 539.329 364.807, 535.486 368.491 C 531.644 372.175, 527.150 375.882, 525.500 376.728 C 523.850 377.575, 518.900 381.479, 514.500 385.404 C 510.100 389.329, 503.800 394.538, 500.500 396.979 C 497.200 399.420, 491.751 403.911, 488.392 406.959 C 485.032 410.006, 480.532 413.731, 478.392 415.235 C 476.251 416.739, 471.747 420.339, 468.383 423.235 C 465.018 426.131, 459.684 430.525, 456.529 433 C 453.374 435.475, 448.315 439.750, 445.286 442.500 C 442.257 445.250, 438.592 448.128, 437.140 448.895 C 435.688 449.663, 431.783 452.813, 428.462 455.895 C 425.141 458.978, 418.902 464.200, 414.599 467.500 C 410.295 470.800, 403.976 476.027, 400.556 479.116 C 397.136 482.205, 393.025 485.573, 391.419 486.601 C 389.814 487.629, 385.295 491.177, 381.378 494.485 C 363.303 509.750, 353.652 517.659, 350.851 519.500 C 349.178 520.600, 344.639 524.337, 340.766 527.804 C 336.893 531.272, 332.098 535.313, 330.112 536.785 C 328.125 538.257, 322.758 542.507, 318.184 546.230 C 313.610 549.954, 309.006 553, 307.953 553 C 305.985 553, 304.255 556.985, 305.411 558.856 C 305.740 559.389, 306.007 739.816, 306.002 959.805 C 305.996 1323.874, 306.137 1359.839, 307.579 1360.392 C 310.168 1361.385, 1266.820 1361.100, 1267.435 1360.105 C 1267.739 1359.613, 1268.004 1178.151, 1268.023 956.855 L 1268.059 554.500 1265.642 553 C 1262.195 550.861, 1251.180 542.177, 1246.678 538.050 C 1241.727 533.510, 1237.904 531.015, 1235.888 531.007 C 1235.001 531.003, 1230.670 527.737, 1226.263 523.750 C 1212.099 510.933, 1210.563 509.670, 1206.781 507.730 C 1203.084 505.833, 1191 493.780, 1191 491.989 C 1191 491.473, 1189.561 490.307, 1187.803 489.398 C 1186.044 488.488, 1181.122 484.427, 1176.866 480.372 C 1172.609 476.317, 1168.646 473, 1168.058 473 C 1167.471 473, 1163.728 470.187, 1159.741 466.750 C 1151.300 459.471, 1144.529 454.083, 1141 451.836 C 1139.625 450.960, 1134.966 446.926, 1130.647 442.872 C 1126.328 438.817, 1121.289 434.575, 1119.449 433.445 C 1117.610 432.314, 1113.690 429.164, 1110.739 426.445 C 1107.788 423.725, 1102.362 419.250, 1098.682 416.500 C 1095.003 413.750, 1088.956 408.701, 1085.246 405.281 C 1081.536 401.860, 1077.956 399.048, 1077.292 399.031 C 1076.628 399.014, 1072.516 395.738, 1068.154 391.750 C 1063.792 387.762, 1056.707 381.800, 1052.409 378.500 C 1048.112 375.200, 1042.099 370.204, 1039.048 367.397 C 1035.997 364.590, 1032.296 361.665, 1030.825 360.897 C 1029.354 360.129, 1025.754 357.225, 1022.825 354.444 C 1019.896 351.663, 1014.350 347.031, 1010.500 344.151 C 1006.650 341.270, 1000.423 336.121, 996.663 332.707 C 992.903 329.293, 988.403 325.738, 986.663 324.808 C 984.923 323.877, 980.125 319.878, 976 315.922 C 971.875 311.966, 966.700 307.590, 964.500 306.198 C 962.300 304.806, 956.597 300.169, 951.826 295.894 C 947.055 291.619, 941.205 286.895, 938.826 285.396 C 936.447 283.897, 931.800 280.137, 928.500 277.041 C 925.200 273.944, 920.475 270.119, 918 268.540 C 915.525 266.962, 912.910 264.841, 912.189 263.829 C 910.746 261.802, 899.587 252.484, 892.036 247 C 889.385 245.075, 884.720 241.138, 881.668 238.250 C 878.617 235.363, 875.614 233, 874.997 233 C 874.379 233, 870.347 229.738, 866.038 225.750 C 857.341 217.703, 847.753 210.009, 846.388 209.983 C 845.899 209.973, 842.402 206.834, 838.615 203.007 C 834.828 199.180, 830.778 195.749, 829.615 195.383 C 828.452 195.017, 823.944 191.377, 819.597 187.293 C 815.251 183.210, 810.076 178.692, 808.097 177.254 C 806.119 175.816, 801.893 172.650, 798.706 170.218 C 793.038 165.894, 787.629 164.214, 784 165.651 M 449.958 476.828 C 443.623 479.161, 432.965 485.429, 430.109 488.502 C 424.498 494.539, 420.918 499.798, 419.467 504.132 C 418.615 506.680, 417.043 509.556, 415.974 510.524 C 414.069 512.248, 414.029 514.763, 414.008 636.141 C 413.993 720.675, 414.313 760, 415.018 760 C 415.586 760, 417.672 763.368, 419.654 767.485 C 423.911 776.330, 434.107 787.377, 441 790.612 C 452.652 796.081, 451.410 796, 523.338 796 C 560.002 796, 590 796.251, 590 796.559 C 590 796.866, 588.607 798.851, 586.904 800.969 C 584.537 803.916, 583.979 805.372, 584.535 807.161 C 584.934 808.447, 596.220 820.554, 609.614 834.065 L 633.966 858.630 632.988 862.042 C 632.450 863.919, 632.255 866.229, 632.556 867.177 C 632.857 868.125, 632.405 870.250, 631.552 871.900 C 630.698 873.551, 630 877.083, 630 879.750 C 630 882.418, 629.453 885.147, 628.785 885.815 C 627.640 886.960, 626.600 892.707, 625.356 904.773 C 624.889 909.301, 624.409 910.254, 621.956 911.523 C 620.385 912.335, 617.081 913, 614.615 913 C 612.148 913, 608.863 913.502, 607.315 914.115 C 604.602 915.190, 598.785 916.167, 585 917.862 C 581.425 918.301, 577.517 919.187, 576.316 919.830 C 575.114 920.474, 572.764 921, 571.092 921 C 567.851 921, 569.608 922.590, 533.802 887.259 C 520.328 873.964, 518.872 872.811, 516.302 873.406 C 512.594 874.264, 507 880.601, 507 883.944 C 507 885.380, 506.379 887.443, 505.620 888.527 C 503.900 890.986, 503.777 893.140, 503.726 921.500 C 503.681 946.723, 504.028 952.406, 505.812 955.684 C 506.465 956.886, 507.014 958.911, 507.032 960.184 C 507.049 961.458, 507.724 963.374, 508.532 964.441 C 509.339 965.509, 510 967.155, 510 968.099 C 510 969.597, 513.509 977.618, 516.083 982 C 516.567 982.825, 518.125 985.854, 519.545 988.730 C 520.965 991.607, 522.553 994.224, 523.075 994.546 C 523.596 994.869, 525.531 997.465, 527.374 1000.316 C 531.135 1006.135, 554.094 1029, 556.175 1029 C 556.914 1029, 558.012 1029.787, 558.614 1030.750 C 559.216 1031.713, 565.512 1035.395, 572.605 1038.934 C 589.563 1047.394, 588.645 1046.995, 591.236 1047.035 C 592.481 1047.055, 594.625 1047.714, 596 1048.500 C 597.375 1049.286, 599.683 1049.945, 601.128 1049.965 C 602.573 1049.984, 605.498 1050.729, 607.628 1051.620 C 613.305 1053.995, 654.194 1053.985, 658.792 1051.607 C 660.502 1050.723, 663.412 1050, 665.259 1050 C 667.106 1050, 669.491 1049.339, 670.559 1048.532 C 671.626 1047.724, 673.711 1047.049, 675.191 1047.032 C 676.671 1047.014, 678.160 1046.550, 678.500 1046 C 679.965 1043.629, 683.083 1045.544, 691.461 1053.961 C 700.220 1062.760, 700.348 1062.958, 698.558 1064.935 C 697.556 1066.043, 695.891 1067.217, 694.858 1067.545 C 693.826 1067.873, 689.947 1069.905, 686.240 1072.060 C 680.653 1075.308, 665.713 1089.758, 598.927 1156.503 C 513.255 1242.124, 518.375 1236.507, 511.620 1252.284 C 509.399 1257.471, 509.287 1280.675, 511.468 1283.559 C 512.276 1284.626, 512.951 1286.246, 512.968 1287.158 C 513.056 1291.756, 519.281 1300.330, 532.455 1314 C 540.141 1321.975, 547.966 1329.850, 549.844 1331.500 C 566.479 1346.116, 571.114 1347.964, 591.191 1347.985 C 599.256 1347.994, 605.136 1347.589, 605.500 1347 C 605.840 1346.450, 607.161 1346, 608.437 1346 C 609.712 1346, 611.315 1345.325, 612 1344.500 C 612.685 1343.675, 614.035 1343, 615 1343 C 615.965 1343, 617.315 1342.325, 618 1341.500 C 618.685 1340.675, 619.753 1340, 620.375 1340 C 620.996 1340, 657.788 1303.662, 702.135 1259.250 C 783.869 1177.395, 786.168 1174.910, 790.905 1163.283 C 793.914 1155.897, 788.093 1150.662, 888.802 1251.316 C 940.336 1302.822, 983.400 1345.581, 984.500 1346.336 C 989.569 1349.815, 998.110 1354.003, 1000.196 1354.032 C 1001.463 1354.049, 1003.374 1354.724, 1004.441 1355.532 C 1005.851 1356.598, 1009.152 1357, 1016.500 1357 C 1023.848 1357, 1027.149 1356.598, 1028.559 1355.532 C 1029.626 1354.724, 1031.499 1354.049, 1032.719 1354.032 C 1041.008 1353.913, 1064.915 1330.929, 1064.997 1323 C 1065.005 1322.175, 1065.685 1320.211, 1066.506 1318.636 C 1068.583 1314.653, 1068.555 1295.318, 1066.468 1292.559 C 1065.661 1291.491, 1065 1289.691, 1065 1288.559 C 1065.001 1287.426, 1063.555 1283.575, 1061.787 1280 C 1058.871 1274.104, 1049.026 1263.933, 955.788 1170.500 C 899.256 1113.850, 853.002 1067.164, 853.001 1066.753 C 853.001 1066.343, 856.358 1062.743, 860.463 1058.753 C 869.148 1050.312, 873 1045.380, 873 1042.700 C 873 1041.648, 871.650 1039.083, 870 1037 C 868.350 1034.917, 867 1032.619, 867 1031.893 C 867 1031.168, 893.621 1003.931, 926.157 971.368 C 970.755 926.733, 986.321 911.748, 989.407 910.480 C 991.658 909.555, 994.978 908.169, 996.784 907.399 C 998.590 906.630, 1000.715 906, 1001.505 906 C 1002.296 906, 1005.487 904.875, 1008.596 903.500 C 1011.705 902.125, 1015.058 901, 1016.047 901 C 1018.412 901, 1023.764 894.586, 1027.461 887.320 C 1029.090 884.119, 1032.128 878.970, 1034.211 875.879 C 1036.295 872.787, 1038 869.930, 1038 869.531 C 1038 869.131, 1040.378 864.911, 1043.285 860.152 C 1046.191 855.393, 1049.119 850.375, 1049.792 849 C 1050.465 847.625, 1053.037 843.199, 1055.508 839.165 C 1062.685 827.446, 1062.557 827.023, 1047.236 811.736 C 1035.063 799.589, 1034.283 799, 1030.393 799 C 1027.900 799, 1024.602 799.965, 1021.907 801.483 C 1019.483 802.849, 1016.531 804.396, 1015.347 804.922 C 1014.163 805.447, 1012.913 806.332, 1012.569 806.888 C 1012.225 807.445, 1009.189 809.300, 1005.822 811.011 C 1000.169 813.884, 985.886 822.116, 980 825.895 C 978.625 826.778, 975.700 828.414, 973.500 829.531 C 962.733 834.999, 957 840.226, 957 844.576 C 957 845.844, 956.550 847.160, 956 847.500 C 955.450 847.840, 955 849.161, 955 850.437 C 955 851.712, 954.325 853.315, 953.500 854 C 952.675 854.685, 951.986 856.427, 951.968 857.872 C 951.951 859.318, 951.276 861.374, 950.468 862.441 C 949.661 863.509, 949 865.205, 949 866.211 C 949 867.217, 947.913 869.718, 946.583 871.770 C 944.423 875.104, 830.172 989.655, 827.345 991.320 C 826.710 991.694, 824.305 990.425, 822 988.500 C 815.428 983.009, 814.341 983.430, 800.932 996.660 L 791.363 1006.101 773.932 988.504 C 764.344 978.827, 756.368 970.325, 756.207 969.612 C 756.046 968.899, 756.609 967.740, 757.457 967.036 C 758.306 966.331, 759 964.444, 759 962.842 C 759 961.240, 759.712 958.842, 760.583 957.514 C 761.531 956.067, 761.899 954.256, 761.500 953 C 761.107 951.762, 761.455 949.955, 762.348 948.592 C 763.342 947.075, 764.040 942.717, 764.383 935.891 C 764.669 930.176, 764.955 924.600, 765.017 923.500 C 765.407 916.568, 763.523 897.218, 762.271 895.299 C 761.439 894.025, 761.115 892.214, 761.500 891 C 761.899 889.744, 761.531 887.933, 760.583 886.486 C 759.712 885.158, 759 882.760, 759 881.158 C 759 879.556, 758.325 877.685, 757.500 877 C 756.675 876.315, 756 875.172, 756 874.459 C 756 873.746, 755.380 871.888, 754.622 870.331 C 753.865 868.774, 752.421 865.700, 751.414 863.500 C 750.408 861.300, 748.666 858.150, 747.544 856.500 C 746.422 854.850, 744.828 852.291, 744.002 850.814 C 740.032 843.715, 734.288 836.674, 725.317 827.911 C 715.911 818.723, 699.856 807, 696.679 807 C 695.847 807, 695.017 806.632, 694.833 806.183 C 694.444 805.227, 681.838 799, 680.293 799 C 679.717 799, 678.685 798.325, 678 797.500 C 676.894 796.167, 702.857 795.996, 910.628 795.965 C 1111.481 795.934, 1144.853 795.727, 1147 794.500 C 1148.375 793.714, 1150.936 793.055, 1152.691 793.035 C 1154.446 793.016, 1156.171 792.532, 1156.525 791.959 C 1156.879 791.387, 1159.043 789.755, 1161.334 788.332 C 1170.975 782.344, 1182.990 765.210, 1183.006 757.425 C 1183.010 755.816, 1183.685 753.211, 1184.506 751.636 C 1186.764 747.307, 1186.764 523.693, 1184.506 519.364 C 1183.685 517.789, 1183.010 515.064, 1183.006 513.309 C 1183.003 511.554, 1182.600 509.871, 1182.111 509.568 C 1181.622 509.266, 1180.915 507.777, 1180.540 506.259 C 1179.624 502.552, 1174.331 494.398, 1170.013 490.043 C 1163.514 483.489, 1158.350 480.167, 1150.633 477.576 L 1142.958 475 798.729 475.078 C 479.562 475.149, 454.169 475.277, 449.958 476.828 M 456.411 510.888 C 454.713 511.926, 452.350 514.011, 451.161 515.522 L 449 518.270 449.041 635.885 L 449.081 753.500 451.791 756.618 C 456.982 762.593, 458.351 762.864, 484.405 763.073 C 498.745 763.187, 508.523 762.877, 509.112 762.288 C 509.714 761.686, 510.062 745.853, 510.023 720.800 L 509.960 680.286 513.230 675.393 C 515.399 672.148, 518.015 669.756, 521 668.291 L 525.500 666.082 799.500 666.082 L 1073.500 666.082 1078 668.291 C 1080.976 669.752, 1083.601 672.147, 1085.750 675.363 L 1089 680.226 1089 721.054 C 1089 749.143, 1089.336 762.090, 1090.077 762.548 C 1090.670 762.914, 1101.749 763.169, 1114.699 763.114 C 1137.178 763.020, 1138.428 762.913, 1142.302 760.758 C 1144.922 759.300, 1147.182 756.939, 1148.680 754.093 L 1151 749.685 1151 635.811 C 1151 511.259, 1151.345 518.415, 1145.058 512.500 L 1141.869 509.500 800.684 509.251 C 467.901 509.009, 459.424 509.049, 456.411 510.888 M 633.500 539.573 C 626.636 543.143, 621.737 550.059, 621.820 556.065 C 621.898 561.664, 626.580 568.180, 633 571.623 C 636.376 573.433, 642.207 573.510, 797.500 573.772 C 943.188 574.018, 958.976 573.891, 963.500 572.435 C 969.323 570.562, 972.445 567.962, 975.107 562.771 C 977.466 558.170, 977.703 555.524, 976.164 550.938 C 974.781 546.816, 968.772 540.598, 964.685 539.060 C 962.745 538.329, 911.312 538.002, 799.185 538.006 C 653.739 538.012, 636.182 538.178, 633.500 539.573 M 1048.223 539.661 C 1040.969 543.236, 1036.803 552.061, 1038.964 559.273 C 1041.723 568.483, 1051.705 574.603, 1059.943 572.135 C 1064.569 570.749, 1070.563 564.854, 1072.109 560.170 C 1074.481 552.983, 1070.857 544.323, 1063.634 539.919 C 1059.775 537.565, 1052.714 537.447, 1048.223 539.661 M 632.976 604.250 C 626.624 607.464, 622 613.929, 622 619.598 C 622 627.369, 628.006 634.528, 636.500 636.881 C 639.349 637.670, 686.284 637.990, 799.568 637.994 C 978.020 638.001, 965.843 638.506, 972.425 630.816 C 978.328 623.920, 978.435 615.843, 972.709 609.322 C 970.954 607.322, 967.713 604.867, 965.509 603.865 C 961.685 602.128, 954.032 602.043, 799.462 602.022 L 637.424 602 632.976 604.250 M 1047.840 603.965 C 1034.827 611.042, 1035.512 628.119, 1049.086 635.044 C 1053.966 637.533, 1057.307 637.514, 1062.573 634.965 C 1067.814 632.428, 1072.085 626.430, 1072.730 620.699 C 1074.164 607.981, 1059.090 597.846, 1047.840 603.965 M 544.950 701.450 C 543.467 702.933, 543.705 760.305, 545.200 761.800 C 546.947 763.547, 1052.053 763.547, 1053.800 761.800 C 1055.271 760.329, 1055.539 702.451, 1054.080 701.549 C 1052.430 700.530, 545.969 700.431, 544.950 701.450 M 631.110 808.911 C 630.345 809.395, 626.408 810.102, 622.360 810.481 C 617.780 810.910, 615 811.615, 615 812.346 C 615 812.992, 623.122 821.616, 633.048 831.510 C 652.059 850.459, 655.034 854.435, 653.205 858.449 C 652.616 859.742, 652.358 861.654, 652.631 862.699 C 652.905 863.744, 652.431 866.602, 651.579 869.049 C 650.726 871.497, 650.023 875.217, 650.015 877.316 C 650.007 879.414, 649.457 882.114, 648.793 883.316 C 648.129 884.517, 647.229 888.087, 646.793 891.250 C 646.357 894.413, 645.643 899.587, 645.207 902.750 C 644.771 905.913, 643.871 909.483, 643.207 910.684 C 642.543 911.886, 642 914.643, 642 916.812 C 642 919.097, 641.369 921.279, 640.500 922 C 639.675 922.685, 639 923.856, 639 924.602 C 639 926.807, 631.533 929.997, 626.290 930.032 C 623.655 930.049, 620.626 930.724, 619.559 931.532 C 618.343 932.451, 615.331 933, 611.500 933 C 607.669 933, 604.657 933.549, 603.441 934.468 C 602.206 935.402, 599.117 935.948, 594.950 935.968 C 591.315 935.986, 587.878 936.522, 587.227 937.173 C 586.582 937.818, 583.097 938.454, 579.484 938.586 C 575.870 938.718, 572.371 939.264, 571.707 939.798 C 571.043 940.332, 568.996 941.091, 567.157 941.484 C 563.874 942.187, 563.466 941.852, 544.125 922.600 C 533.296 911.820, 523.971 903, 523.403 903 C 522.494 903, 521.357 908.140, 519.360 921.269 C 519.044 923.345, 519.260 925.608, 519.841 926.309 C 520.422 927.008, 521.179 931.837, 521.524 937.040 C 521.869 942.243, 522.500 947.400, 522.926 948.500 C 524.764 953.244, 526.242 957.674, 526.762 960 C 527.647 963.956, 538.858 985.062, 542.342 989.330 C 546.365 994.260, 560.511 1008.392, 566.166 1013.131 C 571.564 1017.654, 596.876 1030, 600.752 1030 C 602.328 1030, 604.491 1030.661, 605.559 1031.468 C 606.680 1032.316, 609.732 1032.950, 612.785 1032.968 C 615.692 1032.986, 619.067 1033.583, 620.285 1034.296 C 623.856 1036.385, 654.726 1034.138, 660.845 1031.344 C 662.684 1030.504, 664.970 1030.020, 665.924 1030.270 C 666.878 1030.519, 668.496 1030.111, 669.520 1029.362 C 670.544 1028.613, 672.591 1028, 674.069 1028 C 675.546 1028, 677.315 1027.325, 678 1026.500 C 679.878 1024.237, 687.601 1024.555, 690.842 1027.029 C 692.304 1028.144, 699.154 1034.685, 706.064 1041.564 L 718.628 1054.070 726.496 1049.720 C 730.824 1047.327, 734.839 1044.617, 735.419 1043.698 C 737.085 1041.056, 732.599 1034.010, 723.767 1025.396 C 714.264 1016.129, 712.380 1012.704, 714.288 1008.168 C 715.444 1005.417, 721.503 1001, 724.119 1001 C 724.502 1001, 727.805 1003.990, 731.460 1007.645 L 738.105 1014.290 741.360 1011.135 C 745.817 1006.816, 751.678 1004, 756.211 1004 C 758.295 1004, 760 1003.607, 760 1003.126 C 760 1002.645, 755.911 998.258, 750.913 993.376 C 739.645 982.368, 735.989 977.167, 736.032 972.200 C 736.049 970.165, 736.724 967.626, 737.532 966.559 C 738.339 965.491, 739 963.605, 739 962.368 C 739 961.130, 739.450 959.840, 740 959.500 C 740.550 959.160, 741.003 957.446, 741.006 955.691 C 741.010 953.936, 741.685 951.211, 742.506 949.636 C 743.328 948.060, 744 944.659, 744 942.077 C 744 939.495, 744.661 936.509, 745.468 935.441 C 747.568 932.665, 747.618 911.200, 745.532 908.441 C 744.704 907.346, 744.050 904.294, 744.032 901.441 C 744.014 898.588, 743.360 895.536, 742.532 894.441 C 741.724 893.374, 741.049 891.090, 741.032 889.366 C 740.990 885.287, 728.797 860.908, 723.811 854.936 C 721.715 852.425, 720 849.914, 720 849.355 C 720 848.074, 705.556 834, 704.242 834 C 703.708 834, 701.748 832.635, 699.886 830.966 C 698.023 829.297, 694.250 826.803, 691.500 825.424 C 688.750 824.045, 685.825 822.504, 685 821.999 C 681.896 820.099, 672.335 816.175, 668 815.022 C 665.525 814.363, 662.150 813.200, 660.500 812.436 C 658.850 811.673, 654.125 810.980, 650 810.896 C 645.875 810.813, 640.983 810.127, 639.128 809.372 C 635.243 807.791, 633.075 807.667, 631.110 808.911 M 1025.500 820.780 C 1023.850 821.593, 1021.600 823.047, 1020.500 824.011 C 1019.400 824.975, 1016.475 826.844, 1014 828.164 C 1011.525 829.484, 1007.696 831.724, 1005.491 833.142 C 1003.286 834.561, 998.940 836.883, 995.835 838.304 C 992.729 839.725, 989.895 841.361, 989.537 841.941 C 989.178 842.520, 985.982 844.395, 982.435 846.106 C 977.868 848.308, 975.811 849.903, 975.394 851.567 C 975.069 852.860, 974.173 854.442, 973.402 855.081 C 972.631 855.721, 971.986 857.427, 971.968 858.872 C 971.951 860.318, 971.276 862.374, 970.468 863.441 C 969.661 864.509, 968.982 866.309, 968.959 867.441 C 968.937 868.574, 967.647 872.158, 966.094 875.406 C 963.640 880.537, 955.325 889.265, 902.741 941.906 C 869.450 975.233, 841.900 1003.541, 841.519 1004.814 C 840.946 1006.722, 841.780 1008.085, 846.260 1012.564 C 849.250 1015.554, 852.217 1018, 852.855 1018 C 853.492 1018, 881.699 990.332, 915.537 956.515 C 981.476 890.618, 979.093 892.694, 993.500 888.594 C 1005.791 885.097, 1009.173 882.519, 1013.313 873.500 C 1014.071 871.850, 1015.435 869.882, 1016.345 869.128 C 1017.255 868.373, 1018 866.937, 1018 865.937 C 1018 864.936, 1018.401 863.870, 1018.891 863.568 C 1019.381 863.265, 1021.004 860.651, 1022.499 857.759 C 1023.993 854.866, 1026.068 851.571, 1027.108 850.436 C 1028.149 849.300, 1029 847.940, 1029 847.413 C 1029 846.886, 1030.616 844.001, 1032.591 841.002 C 1039.997 829.756, 1039.944 830.447, 1033.848 824.510 C 1028.547 819.347, 1028.474 819.314, 1025.500 820.780 M 807.490 1016.010 L 801.542 1022.020 818.510 1039.010 C 827.842 1048.355, 835.977 1056, 836.587 1056 C 838.083 1056, 849 1044.474, 849 1042.895 C 849 1040.675, 817.769 1010, 815.509 1010 C 814.303 1010, 810.953 1012.511, 807.490 1016.010 M 757.345 1023.931 C 753.807 1026.089, 752.374 1030.278, 753.875 1034.076 C 754.402 1035.409, 770.298 1051.912, 789.200 1070.750 C 821.333 1102.774, 823.796 1105, 827.092 1105 C 829.031 1105, 831.298 1104.438, 832.129 1103.750 C 835.030 1101.350, 837.123 1096.966, 836.446 1094.704 C 835.608 1091.904, 769.493 1025.421, 765.596 1023.461 C 761.854 1021.578, 761.137 1021.619, 757.345 1023.931 M 746.580 1060.870 C 746.285 1061.349, 741.196 1064.114, 735.271 1067.016 C 729.347 1069.917, 723.825 1072.856, 723 1073.546 C 721.314 1074.957, 716.434 1077.690, 704 1084.187 C 699.325 1086.630, 693.475 1089.899, 691 1091.453 C 688.525 1093.006, 653.359 1127.497, 612.853 1168.099 C 536.832 1244.301, 530 1251.795, 530 1258.980 C 530 1260.746, 529.223 1263.508, 528.272 1265.116 C 526.833 1267.552, 526.756 1268.380, 527.812 1270.070 C 528.509 1271.186, 529.254 1273.764, 529.468 1275.799 C 530.316 1283.861, 535.195 1290.771, 551.216 1306.603 C 567.213 1322.411, 573.828 1327.119, 581.968 1328.495 C 584.418 1328.909, 587.170 1329.714, 588.083 1330.284 C 589.287 1331.036, 590.881 1330.865, 593.891 1329.660 C 596.173 1328.747, 599.044 1327.978, 600.270 1327.952 C 602.690 1327.900, 606.305 1326.109, 613.034 1321.628 C 619.105 1317.585, 764.305 1171.772, 767.875 1166.133 C 769.488 1163.585, 773.410 1156.325, 776.590 1150 C 779.770 1143.675, 782.924 1137.825, 783.601 1137 C 785.508 1134.673, 798 1110.245, 798 1108.843 C 798 1106.912, 750.779 1060, 748.837 1060 C 747.891 1060, 746.876 1060.392, 746.580 1060.870 M 854.991 1102.250 C 854.980 1105.969, 850.076 1115.133, 846.911 1117.350 C 845.739 1118.171, 844.957 1119.370, 845.172 1120.016 C 845.387 1120.662, 877.162 1152.792, 915.782 1191.416 C 981.924 1257.566, 986 1261.845, 986 1265.134 C 986 1270.079, 981.775 1274, 976.445 1274 C 972.553 1274, 971.502 1273, 898.500 1199.935 C 845.954 1147.344, 823.255 1125.272, 820.204 1123.804 L 815.909 1121.737 813.463 1124.034 C 812.118 1125.298, 810.044 1128.395, 808.855 1130.916 C 807.665 1133.437, 805.996 1136.310, 805.145 1137.301 C 803.700 1138.983, 809.914 1145.410, 900.049 1235.439 C 967.128 1302.439, 997.870 1332.487, 1001 1334.108 C 1004.930 1336.144, 1006.923 1336.440, 1016.728 1336.442 C 1024.241 1336.443, 1028.361 1336.039, 1029.178 1335.222 C 1029.850 1334.550, 1031.112 1334, 1031.981 1334 C 1034.076 1334, 1044.298 1323.410, 1046.368 1319.096 C 1048.782 1314.063, 1048.661 1295.716, 1046.180 1290.616 C 1044.468 1287.095, 857.549 1099, 855.763 1099 C 855.343 1099, 854.996 1100.463, 854.991 1102.250" stroke="none" fill="#f9fafa" fill-rule="evenodd"/></svg>