<svg xmlns="http://www.w3.org/2000/svg" width="800" height="800" viewBox="0 0 800 800" version="1.1"><path d="M 80.500 267.020 L 7.500 326.899 7.205 334.607 L 6.910 342.315 11.705 338.461 C 14.342 336.341, 19.036 332.445, 22.136 329.803 C 25.235 327.162, 28.046 325, 28.381 325 C 28.716 325, 29.105 370.478, 29.245 426.062 L 29.500 527.124 162.500 527.152 L 295.500 527.180 295.755 426.071 L 296.010 324.963 308.448 335.076 C 315.289 340.638, 321.362 344.895, 321.943 344.535 C 322.524 344.176, 323 341.077, 323 337.650 L 323 331.417 302.363 314.459 C 273.792 290.980, 270.525 288.304, 217.797 245.189 L 171.094 207 162.297 207.071 L 153.500 207.142 80.500 267.020 M 145 227.666 C 135.925 235.149, 114.775 252.500, 98 266.223 C 81.225 279.945, 61.946 295.747, 55.159 301.337 C 48.371 306.926, 41.958 311.906, 40.909 312.403 C 39.048 313.283, 39 315.954, 39 417.653 L 39 522 162 522 L 285 522 284.972 417.750 L 284.945 313.500 281.411 311 C 279.468 309.625, 273.518 304.861, 268.189 300.414 C 262.860 295.967, 253.065 287.867, 246.422 282.414 C 228.365 267.593, 180.844 228.450, 171.599 220.784 C 167.145 217.090, 163.050 214.066, 162.500 214.064 C 161.950 214.062, 154.075 220.183, 145 227.666 M 72.898 296.285 C 67.419 299.969, 67.084 302.229, 67.099 335.409 C 67.114 367.741, 67.255 368.695, 72.615 372.912 C 75.263 374.994, 75.509 375, 165.735 375 L 256.200 375 259.510 371.690 C 263.950 367.250, 264.197 364.947, 263.818 331.500 C 263.540 307.004, 263.279 303.095, 261.733 300.267 C 258.126 293.667, 263.262 294, 165.198 294 L 76.296 294 72.898 296.285 M 77.200 303.200 C 76.319 304.081, 76 312.570, 76 335.165 C 76 370.513, 75.350 368.344, 85.776 367.799 L 91.500 367.500 91.786 356.559 C 91.943 350.542, 92.561 345.030, 93.158 344.309 C 94.762 342.377, 236.238 342.377, 237.842 344.309 C 238.439 345.030, 239.057 350.542, 239.214 356.559 L 239.500 367.500 244.564 367.796 C 247.350 367.959, 250.837 367.632, 252.314 367.071 L 255 366.050 255 335.225 C 255 312.583, 254.681 304.081, 253.800 303.200 C 252.061 301.461, 78.939 301.461, 77.200 303.200 M 121.631 311.855 C 119.726 313.960, 120.327 316.569, 123.052 318.028 C 125.483 319.329, 204.012 319.326, 207.435 318.025 C 210.223 316.965, 210.946 313.346, 208.800 311.200 C 207.905 310.305, 196.901 310, 165.455 310 C 125.675 310, 123.216 310.104, 121.631 311.855 M 228.086 311.397 C 227.404 312.218, 226.994 313.927, 227.173 315.195 C 227.428 316.995, 228.134 317.500, 230.391 317.500 C 233.956 317.500, 236.001 314.816, 234.393 312.250 C 232.957 309.960, 229.650 309.512, 228.086 311.397 M 122.223 327.557 C 119.521 329.449, 119.406 331.152, 121.829 333.345 C 123.469 334.830, 127.977 335, 165.629 335 C 196.940 335, 207.905 334.695, 208.800 333.800 C 210.637 331.963, 210.228 328.192, 208.066 327.035 C 206.823 326.370, 191.530 326, 165.288 326 C 129.940 326, 124.146 326.209, 122.223 327.557 M 228.750 327.080 C 225.500 328.973, 227.488 335, 231.363 335 C 232.408 335, 235 331.793, 235 330.500 C 235 329.079, 232.348 325.978, 231.179 326.030 C 230.805 326.047, 229.713 326.519, 228.750 327.080 M 100.210 359.011 L 100.500 367.022 165.500 367.043 L 230.500 367.063 230.790 359.031 L 231.081 351 165.500 351 L 99.919 351 100.210 359.011 M 724 398.500 L 724 428 743.500 428 L 763 428 763 423.864 L 763 419.728 748 420.210 L 733 420.691 733 410.346 L 733 400 748 400 L 763 400 763 396 L 763 392 748 392 L 733 392 733 384.500 L 733 377 748 377 L 763 377 763 373 L 763 369 743.500 369 L 724 369 724 398.500 M 401.365 371.025 C 394.787 373.066, 388.680 378.235, 385.522 384.433 C 382.713 389.947, 382.503 391.110, 382.538 400.933 C 382.570 409.922, 382.924 412.212, 384.908 416.270 C 387.884 422.360, 394.714 428.380, 400.476 429.993 C 406.836 431.774, 420.252 430.826, 426.250 428.173 L 431 426.071 431 420.914 L 431 415.756 428.750 417.411 C 424.577 420.481, 418.028 423.091, 413.006 423.686 C 403.588 424.801, 394.473 418.967, 392.060 410.277 C 390.674 405.286, 390.715 395.150, 392.138 390.899 C 393.578 386.598, 397.423 381.381, 400.291 379.838 C 406.974 376.243, 417.477 377.156, 425.316 382.015 C 427.965 383.657, 430.328 385, 430.566 385 C 430.805 385, 431 382.805, 431 380.123 L 431 375.246 425.775 372.998 C 419.893 370.468, 406.616 369.395, 401.365 371.025 M 451.885 371.380 C 440.861 375.319, 436.116 385.121, 440.630 394.633 C 442.950 399.522, 448.818 402.491, 460.825 404.850 C 466.504 405.966, 471.838 407.451, 472.679 408.149 C 477.811 412.408, 475.706 419.801, 468.588 422.519 C 460.918 425.449, 453.612 424.103, 439.694 417.196 C 439.251 416.976, 439.026 419.191, 439.194 422.117 L 439.500 427.438 445 429.158 C 448.402 430.222, 453.954 430.901, 459.554 430.939 C 467.360 430.992, 469.322 430.644, 473.797 428.414 C 481.267 424.691, 483.500 421.106, 483.500 412.831 C 483.500 407.096, 483.150 405.787, 481 403.489 C 477.408 399.649, 476.046 399.095, 463.894 396.521 C 450.310 393.644, 448 392.282, 448 387.151 C 448 379.872, 455.248 376.401, 466.697 378.196 C 469.885 378.696, 474.465 380.207, 476.873 381.553 C 479.281 382.899, 481.444 384, 481.678 384 C 481.913 384, 481.969 381.637, 481.802 378.750 L 481.500 373.500 475 371.818 C 467.202 369.801, 456.853 369.604, 451.885 371.380 M 546 399.384 L 546 429 550.500 429 L 555 429 555 417.500 L 555 406 560.250 406.052 L 565.500 406.105 575 417.531 L 584.500 428.956 589.750 428.978 C 592.638 428.990, 595 428.777, 595 428.505 C 595 428.233, 590.231 422.577, 584.403 415.936 C 578.574 409.295, 573.962 403.746, 574.153 403.607 C 574.344 403.467, 575.973 402.335, 577.773 401.092 C 584.784 396.249, 587.282 384.654, 582.750 377.985 C 578.745 372.091, 574.254 370.595, 559.250 370.156 L 546 369.768 546 399.384 M 596.055 371.693 C 596.086 372.687, 600.739 385.875, 606.397 401 L 616.683 428.500 622.241 428.797 L 627.799 429.094 629.408 424.797 C 630.293 422.434, 635.022 409.250, 639.918 395.500 L 648.819 370.500 644.806 370.187 C 642.598 370.015, 640.608 370.059, 640.384 370.283 C 640.159 370.507, 636.088 381.793, 631.337 395.361 C 626.586 408.930, 622.557 419.891, 622.385 419.718 C 622.213 419.546, 618.067 408.401, 613.172 394.952 L 604.272 370.500 600.136 370.193 C 596.684 369.936, 596.009 370.184, 596.055 371.693 M 656 399.500 L 656 429 659.982 429 L 663.964 429 664.232 405.059 L 664.500 381.118 672 397.077 C 679.317 412.647, 679.571 413.029, 682.424 412.768 C 685.162 412.517, 685.799 411.520, 692.424 397.135 L 699.500 381.770 700.124 396.135 C 700.468 404.036, 700.805 414.663, 700.874 419.750 L 701 429 705 429 L 709 429 709 399.500 L 709 370 703.204 370 L 697.409 370 690.097 385.992 L 682.785 401.984 674.935 385.992 L 667.086 370 661.543 370 L 656 370 656 399.500 M 344.620 371.806 C 343.947 372.894, 324 428.587, 324 429.377 C 324 429.720, 325.934 430, 328.297 430 L 332.594 430 335.107 422.250 L 337.620 414.500 350.060 414.227 L 362.500 413.955 365.325 421.977 L 368.149 430 372.681 430 C 375.878 430, 377.083 429.632, 376.769 428.750 C 376.524 428.063, 371.638 414.792, 365.912 399.259 L 355.500 371.018 350.309 371.009 C 347.454 371.004, 344.894 371.363, 344.620 371.806 M 495 400.500 L 495 430 514.500 430 L 534 430 534 425.864 L 534 421.728 519 422.210 L 504 422.691 504 412.346 L 504 402 519 402 L 534 402 534 398 L 534 394 519 394 L 504 394 504 386.500 L 504 379 519 379 L 534 379 534 375 L 534 371 514.500 371 L 495 371 495 400.500 M 115.203 377.131 C 109.792 378.691, 110.105 380.543, 116.943 387.443 L 123.165 393.720 122.446 398.610 C 121.303 406.390, 120.417 407.999, 117.275 408.006 C 115.749 408.009, 112.751 408.497, 110.613 409.091 L 106.725 410.170 100.446 403.946 C 96.340 399.877, 93.637 397.925, 92.638 398.309 C 88.924 399.734, 89.142 416.592, 92.976 424.474 C 96.049 430.792, 102.182 436.941, 108.421 439.962 C 114.150 442.735, 125.454 443.797, 131.493 442.130 C 135.194 441.108, 135.664 441.216, 137.991 443.629 C 140.003 445.715, 140.203 446.330, 139 446.731 C 138.175 447.006, 127.263 457.428, 114.750 469.890 L 92 492.548 92 498.337 L 92 504.125 98.750 510.988 C 106.635 519.005, 110.545 520.411, 116.941 517.526 C 120.681 515.840, 161.983 475.448, 162.015 473.446 C 162.024 472.926, 162.456 471.827, 162.976 471.005 C 163.726 469.818, 169.145 474.700, 189.211 494.638 C 216.232 521.489, 217.413 522.339, 224.464 520.012 C 228.088 518.816, 232.389 514.500, 233.526 510.918 C 233.891 509.768, 233.888 507.178, 233.520 505.163 C 232.950 502.045, 228.810 497.445, 205.719 474.270 L 178.588 447.040 181.261 444.250 C 183.207 442.218, 183.768 440.829, 183.325 439.134 C 182.806 437.151, 184.911 434.610, 197.594 421.906 C 209.551 409.929, 213.359 406.709, 216.996 405.501 C 221.172 404.114, 221.933 403.294, 226.848 394.886 L 232.174 385.775 228.891 382.387 C 227.085 380.524, 224.908 379.001, 224.054 379.003 C 223.199 379.005, 218.900 381.164, 214.500 383.802 C 207.559 387.963, 206.307 389.150, 205.041 392.769 C 202.935 398.792, 172.815 428.921, 170.675 427.145 C 169.505 426.174, 168.605 426.462, 166.032 428.627 L 162.839 431.313 158.421 426.895 C 154.215 422.688, 154.051 422.310, 155.001 418.995 C 156.458 413.917, 156.223 405.114, 154.474 399.226 C 149.813 383.528, 130.568 372.701, 115.203 377.131 M 555 388.533 L 555 399.272 559.640 398.636 C 562.191 398.286, 565.601 398, 567.216 398 C 569.130 398, 571.173 396.981, 573.077 395.077 C 575.435 392.719, 576 391.291, 576 387.688 C 576 384.780, 575.333 382.398, 574.088 380.861 C 572.399 378.774, 571.180 378.459, 563.588 378.147 L 555 377.795 555 388.533 M 118 381.719 C 118 382.114, 120.282 384.747, 123.070 387.571 L 128.140 392.705 126.320 401.496 C 125.210 406.858, 123.915 410.575, 123 411.026 C 122.175 411.432, 117.900 412.446, 113.500 413.279 L 105.500 414.794 100.469 409.897 C 97.701 407.204, 95.114 405, 94.719 405 C 93.230 405, 94.078 415.133, 95.994 420.255 C 101.109 433.924, 116.502 441.563, 131 437.626 L 136.500 436.132 140.500 439.959 C 143.951 443.262, 144.809 443.644, 146.750 442.741 C 149.677 441.380, 149.598 439.507, 146.500 436.813 C 142.438 433.281, 143.430 428.742, 147.659 431.512 C 149.928 432.999, 150.630 432.876, 154.932 430.235 C 155.169 430.089, 153.963 428.514, 152.251 426.735 L 149.138 423.500 150.625 418 C 152.344 411.642, 151.738 402.346, 149.292 397.564 C 144.164 387.533, 134.033 381, 123.607 381 C 120.523 381, 118 381.323, 118 381.719 M 345.224 393.250 C 342.883 399.988, 340.975 405.788, 340.984 406.139 C 340.999 406.727, 358.093 406.081, 358.819 405.465 C 359.288 405.068, 350.612 381, 350 381 C 349.714 381, 347.565 386.512, 345.224 393.250 M 216.258 387.760 C 211.318 390.658, 209.779 392.161, 208.881 394.961 C 208.095 397.410, 202.793 403.505, 191.661 414.752 C 176.432 430.138, 175.667 431.096, 177.300 432.728 C 178.932 434.361, 179.863 433.616, 194.762 418.752 C 206.298 407.244, 211.560 402.687, 214.471 401.685 C 217.803 400.539, 219.114 399.181, 222.615 393.253 C 225.637 388.138, 226.486 385.886, 225.694 385.094 C 224.071 383.471, 223.098 383.746, 216.258 387.760 M 167.532 433.571 C 165.632 434.988, 165.726 435.199, 170.271 439.745 C 174.740 444.213, 175.065 444.363, 176.714 442.714 C 178.363 441.065, 178.225 440.753, 173.976 436.540 C 169.844 432.443, 169.349 432.215, 167.532 433.571 M 153.996 436.505 C 152.943 437.773, 154.215 439.508, 162.057 447.505 C 171.392 457.024, 173.538 458.369, 174.673 455.411 C 175.096 454.306, 172.423 450.950, 165.911 444.411 C 160.757 439.235, 156.248 435, 155.892 435 C 155.536 435, 154.683 435.677, 153.996 436.505 M 144.500 449.007 C 134.809 454.425, 96 493.113, 96 497.354 C 96 501.305, 98.203 505.011, 103.401 509.802 C 108.378 514.390, 111.943 515.130, 116.800 512.585 C 118.285 511.806, 128.283 502.244, 139.017 491.335 C 156.205 473.867, 158.944 470.633, 161.969 464.233 L 165.403 456.965 159.483 450.983 C 156.227 447.692, 153.099 445.021, 152.531 445.046 C 151.964 445.072, 148.350 446.854, 144.500 449.007 M 178.237 457.735 C 176.993 460.414, 177.246 460.726, 195.214 478.714 C 211.592 495.110, 213.298 497.131, 211.923 498.505 C 210.549 499.880, 208.387 498.043, 190.760 480.518 C 179.962 469.783, 170.738 461, 170.263 461 C 168.860 461, 167 463.276, 167 464.994 C 167 465.871, 178.175 477.706, 191.833 491.294 C 215.331 514.671, 216.867 516, 220.379 516 C 225.456 516, 229 512.441, 229 507.342 C 229 503.783, 227.779 502.369, 204.777 479.297 C 191.455 465.934, 180.317 455.004, 180.027 455.008 C 179.737 455.012, 178.932 456.239, 178.237 457.735" stroke="none" fill="#090909" fill-rule="evenodd"/><path d="M 145 227.666 C 135.925 235.149, 114.775 252.500, 98 266.223 C 81.225 279.945, 61.946 295.747, 55.159 301.337 C 48.371 306.926, 41.958 311.906, 40.909 312.403 C 39.048 313.283, 39 315.954, 39 417.653 L 39 522 162 522 L 285 522 284.972 417.750 L 284.945 313.500 281.411 311 C 279.468 309.625, 273.518 304.861, 268.189 300.414 C 262.860 295.967, 253.065 287.867, 246.422 282.414 C 228.365 267.593, 180.844 228.450, 171.599 220.784 C 167.145 217.090, 163.050 214.066, 162.500 214.064 C 161.950 214.062, 154.075 220.183, 145 227.666 M 72.898 296.285 C 67.419 299.969, 67.084 302.229, 67.099 335.409 C 67.114 367.741, 67.255 368.695, 72.615 372.912 C 75.263 374.994, 75.509 375, 165.735 375 L 256.200 375 259.510 371.690 C 263.950 367.250, 264.197 364.947, 263.818 331.500 C 263.540 307.004, 263.279 303.095, 261.733 300.267 C 258.126 293.667, 263.262 294, 165.198 294 L 76.296 294 72.898 296.285 M 77.200 303.200 C 76.319 304.081, 76 312.570, 76 335.165 C 76 370.513, 75.350 368.344, 85.776 367.799 L 91.500 367.500 91.786 356.559 C 91.943 350.542, 92.561 345.030, 93.158 344.309 C 94.762 342.377, 236.238 342.377, 237.842 344.309 C 238.439 345.030, 239.057 350.542, 239.214 356.559 L 239.500 367.500 244.564 367.796 C 247.350 367.959, 250.837 367.632, 252.314 367.071 L 255 366.050 255 335.225 C 255 312.583, 254.681 304.081, 253.800 303.200 C 252.061 301.461, 78.939 301.461, 77.200 303.200 M 121.631 311.855 C 119.726 313.960, 120.327 316.569, 123.052 318.028 C 125.483 319.329, 204.012 319.326, 207.435 318.025 C 210.223 316.965, 210.946 313.346, 208.800 311.200 C 207.905 310.305, 196.901 310, 165.455 310 C 125.675 310, 123.216 310.104, 121.631 311.855 M 228.086 311.397 C 227.404 312.218, 226.994 313.927, 227.173 315.195 C 227.428 316.995, 228.134 317.500, 230.391 317.500 C 233.956 317.500, 236.001 314.816, 234.393 312.250 C 232.957 309.960, 229.650 309.512, 228.086 311.397 M 122.223 327.557 C 119.521 329.449, 119.406 331.152, 121.829 333.345 C 123.469 334.830, 127.977 335, 165.629 335 C 196.940 335, 207.905 334.695, 208.800 333.800 C 210.637 331.963, 210.228 328.192, 208.066 327.035 C 206.823 326.370, 191.530 326, 165.288 326 C 129.940 326, 124.146 326.209, 122.223 327.557 M 228.750 327.080 C 225.500 328.973, 227.488 335, 231.363 335 C 232.408 335, 235 331.793, 235 330.500 C 235 329.079, 232.348 325.978, 231.179 326.030 C 230.805 326.047, 229.713 326.519, 228.750 327.080 M 100.210 359.011 L 100.500 367.022 165.500 367.043 L 230.500 367.063 230.790 359.031 L 231.081 351 165.500 351 L 99.919 351 100.210 359.011 M 115.203 377.131 C 109.792 378.691, 110.105 380.543, 116.943 387.443 L 123.165 393.720 122.446 398.610 C 121.303 406.390, 120.417 407.999, 117.275 408.006 C 115.749 408.009, 112.751 408.497, 110.613 409.091 L 106.725 410.170 100.446 403.946 C 96.340 399.877, 93.637 397.925, 92.638 398.309 C 88.924 399.734, 89.142 416.592, 92.976 424.474 C 96.049 430.792, 102.182 436.941, 108.421 439.962 C 114.150 442.735, 125.454 443.797, 131.493 442.130 C 135.194 441.108, 135.664 441.216, 137.991 443.629 C 140.003 445.715, 140.203 446.330, 139 446.731 C 138.175 447.006, 127.263 457.428, 114.750 469.890 L 92 492.548 92 498.337 L 92 504.125 98.750 510.988 C 106.635 519.005, 110.545 520.411, 116.941 517.526 C 120.681 515.840, 161.983 475.448, 162.015 473.446 C 162.024 472.926, 162.456 471.827, 162.976 471.005 C 163.726 469.818, 169.145 474.700, 189.211 494.638 C 216.232 521.489, 217.413 522.339, 224.464 520.012 C 228.088 518.816, 232.389 514.500, 233.526 510.918 C 233.891 509.768, 233.888 507.178, 233.520 505.163 C 232.950 502.045, 228.810 497.445, 205.719 474.270 L 178.588 447.040 181.261 444.250 C 183.207 442.218, 183.768 440.829, 183.325 439.134 C 182.806 437.151, 184.911 434.610, 197.594 421.906 C 209.551 409.929, 213.359 406.709, 216.996 405.501 C 221.172 404.114, 221.933 403.294, 226.848 394.886 L 232.174 385.775 228.891 382.387 C 227.085 380.524, 224.908 379.001, 224.054 379.003 C 223.199 379.005, 218.900 381.164, 214.500 383.802 C 207.559 387.963, 206.307 389.150, 205.041 392.769 C 202.935 398.792, 172.815 428.921, 170.675 427.145 C 169.505 426.174, 168.605 426.462, 166.032 428.627 L 162.839 431.313 158.421 426.895 C 154.215 422.688, 154.051 422.310, 155.001 418.995 C 156.458 413.917, 156.223 405.114, 154.474 399.226 C 149.813 383.528, 130.568 372.701, 115.203 377.131 M 118 381.719 C 118 382.114, 120.282 384.747, 123.070 387.571 L 128.140 392.705 126.320 401.496 C 125.210 406.858, 123.915 410.575, 123 411.026 C 122.175 411.432, 117.900 412.446, 113.500 413.279 L 105.500 414.794 100.469 409.897 C 97.701 407.204, 95.114 405, 94.719 405 C 93.230 405, 94.078 415.133, 95.994 420.255 C 101.109 433.924, 116.502 441.563, 131 437.626 L 136.500 436.132 140.500 439.959 C 143.951 443.262, 144.809 443.644, 146.750 442.741 C 149.677 441.380, 149.598 439.507, 146.500 436.813 C 142.438 433.281, 143.430 428.742, 147.659 431.512 C 149.928 432.999, 150.630 432.876, 154.932 430.235 C 155.169 430.089, 153.963 428.514, 152.251 426.735 L 149.138 423.500 150.625 418 C 152.344 411.642, 151.738 402.346, 149.292 397.564 C 144.164 387.533, 134.033 381, 123.607 381 C 120.523 381, 118 381.323, 118 381.719 M 216.258 387.760 C 211.318 390.658, 209.779 392.161, 208.881 394.961 C 208.095 397.410, 202.793 403.505, 191.661 414.752 C 176.432 430.138, 175.667 431.096, 177.300 432.728 C 178.932 434.361, 179.863 433.616, 194.762 418.752 C 206.298 407.244, 211.560 402.687, 214.471 401.685 C 217.803 400.539, 219.114 399.181, 222.615 393.253 C 225.637 388.138, 226.486 385.886, 225.694 385.094 C 224.071 383.471, 223.098 383.746, 216.258 387.760 M 167.532 433.571 C 165.632 434.988, 165.726 435.199, 170.271 439.745 C 174.740 444.213, 175.065 444.363, 176.714 442.714 C 178.363 441.065, 178.225 440.753, 173.976 436.540 C 169.844 432.443, 169.349 432.215, 167.532 433.571 M 153.996 436.505 C 152.943 437.773, 154.215 439.508, 162.057 447.505 C 171.392 457.024, 173.538 458.369, 174.673 455.411 C 175.096 454.306, 172.423 450.950, 165.911 444.411 C 160.757 439.235, 156.248 435, 155.892 435 C 155.536 435, 154.683 435.677, 153.996 436.505 M 144.500 449.007 C 134.809 454.425, 96 493.113, 96 497.354 C 96 501.305, 98.203 505.011, 103.401 509.802 C 108.378 514.390, 111.943 515.130, 116.800 512.585 C 118.285 511.806, 128.283 502.244, 139.017 491.335 C 156.205 473.867, 158.944 470.633, 161.969 464.233 L 165.403 456.965 159.483 450.983 C 156.227 447.692, 153.099 445.021, 152.531 445.046 C 151.964 445.072, 148.350 446.854, 144.500 449.007 M 178.237 457.735 C 176.993 460.414, 177.246 460.726, 195.214 478.714 C 211.592 495.110, 213.298 497.131, 211.923 498.505 C 210.549 499.880, 208.387 498.043, 190.760 480.518 C 179.962 469.783, 170.738 461, 170.263 461 C 168.860 461, 167 463.276, 167 464.994 C 167 465.871, 178.175 477.706, 191.833 491.294 C 215.331 514.671, 216.867 516, 220.379 516 C 225.456 516, 229 512.441, 229 507.342 C 229 503.783, 227.779 502.369, 204.777 479.297 C 191.455 465.934, 180.317 455.004, 180.027 455.008 C 179.737 455.012, 178.932 456.239, 178.237 457.735" stroke="none" fill="#f8f8f9" fill-rule="evenodd"/></svg>